<?xml version="1.0" encoding="utf-8"?>
<!-- Generator: Adobe Illustrator 15.1.0, SVG Export Plug-In . SVG Version: 6.00 Build 0)  -->
<!DOCTYPE svg PUBLIC "-//W3C//DTD SVG 1.1//EN" "http://www.w3.org/Graphics/SVG/1.1/DTD/svg11.dtd">
<svg version="1.1" xmlns="http://www.w3.org/2000/svg" xmlns:xlink="http://www.w3.org/1999/xlink" x="0px" y="0px"
	 width="308.631px" height="201px" viewBox="0 0 308.631 201" enable-background="new 0 0 308.631 201" xml:space="preserve">
<g id="Layer_5">
	<path fill="none" d="M297.74,29.127c-0.079-0.115-0.153-0.231-0.221-0.35c0.009,0.115,0.019,0.231,0.029,0.348
		C297.615,29.125,297.68,29.125,297.74,29.127z"/>
	<path fill="none" d="M299.824,51.76c-0.027,0.087-0.051,0.174-0.079,0.262c0.04,0.487,0.072,0.915,0.095,1.276
		C299.832,52.786,299.825,52.273,299.824,51.76z"/>
	<path fill="none" d="M295.378,3.406c-0.392,1.086-0.749,2.129-1.072,3.124C295.345,5.723,296.531,5.167,295.378,3.406z"/>
	<path fill="none" d="M290.746,129.343c0.778-2.908,2.594-6.345,2.594-9.517c-0.457,1.396-0.914,2.794-1.371,4.191
		c-0.428,1.537-0.953,3.458-1.278,4.652C290.708,128.894,290.725,129.118,290.746,129.343z"/>
	<path fill="none" d="M297.245,22.053c-0.054,0.26-0.069,0.772-0.053,1.479c0.651-2.808,2.073-5.739,2.372-7.875
		c0.232-1.185,0.153-2.421,0.064-3.641c-0.571,2.269-1.233,4.637-1.829,6.715C297.548,20.213,297.396,21.32,297.245,22.053z"/>
	<path fill="none" d="M284.765,18.73c0.568-2.078,1.202-4.446,1.748-6.715c-0.027-0.391-0.055-0.781-0.074-1.167
		C285.568,14.145,285.082,16.769,284.765,18.73z"/>
	<path fill="none" d="M293.095,12.015c0.458-1.863,0.855-3.657,1.107-5.167c-0.458,1.429-0.848,2.761-1.183,4
		C293.039,11.234,293.067,11.624,293.095,12.015z"/>
	<path fill="none" d="M298.367,37.915c0.474,1.587,0.966,3.163,1.349,4.742c-0.4-3.626-1.033-7.167-1.522-10.736
		c-0.123-0.002-0.256-0.003-0.4-0.005C297.967,33.823,298.165,35.865,298.367,37.915z"/>
	<path fill="none" d="M293.378,113.327c-0.19,2.395-0.37,4.512-0.525,6.084C293.422,117.1,293.898,114.823,293.378,113.327z"/>
	<path fill="none" d="M299.816,57.389c-0.23,1.38-0.446,2.607-0.511,3.478C299.605,59.742,299.75,58.577,299.816,57.389z"/>
	<path fill="none" d="M299.84,53.298c0.028,0.423,0.043,0.757,0.043,0.979c0,0.135-0.008,0.313-0.022,0.523
		c0.008,0.872,0.002,1.736-0.045,2.589c0.446-2.672,0.945-5.919,0.526-8.284c-0.082,0.877-0.249,1.761-0.518,2.656
		C299.825,52.273,299.832,52.786,299.84,53.298z"/>
	<path fill="none" d="M300.083,50.291c0.02-0.735,0.019-1.463,0.005-2.186c-0.194-0.561-0.47-1.038-0.841-1.406
		c0.117,1.182,0.224,2.282,0.315,3.264c0.085,0.026,0.172,0.047,0.262,0.064c-0.09-0.017-0.176-0.038-0.262-0.064
		c0.072,0.764,0.133,1.457,0.184,2.06c0.028-0.087,0.052-0.174,0.079-0.262c0-0.049-0.001-0.099-0.001-0.147
		c0,0.049,0,0.099,0.001,0.147c0.27-0.895,0.436-1.779,0.518-2.656c-0.063-0.354-0.146-0.689-0.254-1
		C300.102,48.828,300.103,49.556,300.083,50.291z"/>
	<path fill="none" d="M300.342,49.104c0.203-2.184-0.111-4.319-0.626-6.448c0.197,1.79,0.335,3.602,0.372,5.449
		C300.196,48.415,300.279,48.75,300.342,49.104z"/>
	<path fill="none" d="M299.247,46.699c0.371,0.369,0.647,0.845,0.841,1.406c-0.037-1.847-0.175-3.659-0.372-5.449
		c-0.383-1.579-0.875-3.154-1.349-4.742C298.67,40.97,298.983,44.04,299.247,46.699z"/>
	<path fill="#5072B7" d="M298.521,47.835c0.067,0.542,0.116,1.089,0.153,1.642c0.265,0.219,0.559,0.387,0.888,0.486
		c-0.091-0.982-0.198-2.082-0.315-3.264c-0.141-0.14-0.292-0.268-0.461-0.374C298.668,46.805,298.579,47.313,298.521,47.835z"/>
	<path fill="#5072B7" d="M297.52,28.777c-0.178-2.177-0.3-4.011-0.328-5.246C296.752,25.431,296.665,27.274,297.52,28.777z"/>
	<path fill="#5072B7" d="M296.711,41.83c-0.21,1.931,0.092,5.774,1.735,7.439c-0.005-0.484,0.022-0.965,0.074-1.434
		C298.259,45.703,297.742,43.668,296.711,41.83z"/>
	<path fill="#5072B7" d="M298.674,49.477c-0.037-0.552-0.086-1.1-0.153-1.642c-0.052,0.469-0.079,0.95-0.074,1.434
		C298.52,49.342,298.596,49.412,298.674,49.477z"/>
	<path fill="#5072B7" d="M298.446,49.269c0.009,0.827,0.109,1.662,0.32,2.462c-0.016-0.757-0.042-1.511-0.093-2.254
		C298.596,49.412,298.52,49.342,298.446,49.269z"/>
	<path fill="#5072B7" d="M298.767,51.731c0.133,0.507,0.31,1.001,0.538,1.468c0.168-0.395,0.313-0.787,0.44-1.177
		c-0.05-0.603-0.112-1.295-0.184-2.06c-0.329-0.099-0.623-0.267-0.888-0.486C298.724,50.22,298.751,50.974,298.767,51.731z"/>
	<path fill="#5072B7" d="M285.245,157.6c0.238-1.308,0.477-2.619,0.714-3.92c-0.576,1.689-1.008,3.26-1.438,5.011
		C284.763,158.32,285.004,157.958,285.245,157.6z"/>
	<path fill="#5072B7" d="M293.286,7.724c-0.31,0.971-0.323,2.031-0.267,3.125c0.335-1.239,0.725-2.571,1.183-4
		c0.016-0.092,0.031-0.183,0.045-0.273C293.851,6.89,293.483,7.245,293.286,7.724z"/>
	<path fill="#5072B7" d="M290.584,119.784c-1.01,3.84-1.653,8.257-1.653,11.146c0.645-1.607,1.168-3.215,1.62-4.829
		C290.484,123.995,290.523,121.89,290.584,119.784z"/>
	<path fill="#5072B7" d="M290.55,126.101c0.027,0.856,0.073,1.712,0.14,2.568c0.325-1.193,0.851-3.115,1.278-4.652
		c-0.062,0.189-0.124,0.377-0.186,0.567c0.113-1.498,0.62-3.346,1.069-5.173c0.155-1.572,0.335-3.689,0.525-6.084
		c-0.013-0.037-0.024-0.075-0.038-0.111C292.401,117.616,291.731,121.878,290.55,126.101z"/>
	<path fill="#5072B7" d="M293.836,88.524c0.563-1.104,1.16-1.919,1.68-2.13c0.617-4.824,1.776-12.577,2.746-19.297
		c-0.65,2.19-1.407,4.397-2.07,6.988C294.947,78.803,294.189,83.645,293.836,88.524z"/>
	<path fill="#5072B7" d="M299.84,53.298c0.008,0.501,0.017,1.002,0.021,1.501c0.014-0.21,0.022-0.388,0.022-0.523
		C299.883,54.055,299.868,53.721,299.84,53.298z"/>
	<path fill="#5072B7" d="M42.834,177.739C44.492,177.775,44.122,177.867,42.834,177.739c-0.324-0.007-0.729-0.012-1.215-0.012
		c-0.342-0.001-0.385-0.001-0.104-0.001c0.036,0,0.067,0.001,0.104,0.001c0.231,0,0.599,0,1.1,0
		c-2.886-0.305-9.877-1.671-9.877-6.875c0-8.196-0.263-123.206,0-134.178c0.263-10.972,1.577-9.915,14.456-10.18
		c12.335-0.253,235.416,2.405,254.224,2.629c-0.009-0.117-0.02-0.233-0.029-0.348c-0.866-1.503-0.777-3.346-0.332-5.246
		c-0.015-0.707,0-1.218,0.054-1.479c0.154-0.732,0.308-1.84,0.563-3.323c-0.753,2.593-1.4,4.731-1.628,5.65
		c0.228-0.919,0.875-3.058,1.628-5.65c0.336-1.961,0.851-4.585,1.774-7.881c-0.059-1.094-0.045-2.154,0.276-3.125
		c0.204-0.479,0.585-0.834,0.996-1.148c0.352-2.142,0.374-3.656-0.207-3.875c0.581,0.219,0.559,1.733,0.207,3.875
		c0.02-0.016,0.04-0.031,0.062-0.046c0.334-0.995,0.704-2.038,1.11-3.124c-0.094-0.14-0.201-0.285-0.328-0.441
		c0.126,0.156,0.233,0.302,0.328,0.441c0.341-0.909,0.705-1.847,1.101-2.821H50.153c0,11.001-20.686,19.92-46.203,19.92
		c-0.852,0-1.699-0.011-2.539-0.03v62.301c14.615,0,26.463,7.947,26.463,17.749c0,9.803-11.848,17.748-26.463,17.748v0.174h0.276
		v62.123c0.75-0.016,1.504-0.025,2.262-0.025c25.517,0,46.203,8.919,46.203,19.921h243.268c-0.358-1.054-0.725-2.172-1.297-3.372
		c-1.604-3.371-4.277-2.437-5.346-5.486c-1.07-3.047-2.14-4.876-2.14-8.098c0-0.576,0.309-2.669,0.815-5.716
		c-76.683-0.02-226.744-0.06-242.734-0.065C42.759,177.731,42.797,177.736,42.834,177.739z M303.302,10.368
		c-3.417,3.965-3.417,7.932-3.417,12.691C299.885,18.299,299.885,14.333,303.302,10.368z"/>
	<path fill="#5072B7" d="M303.145,51.591c-0.128,0.393-0.276,0.788-0.447,1.185c-0.233-0.47-0.411-0.967-0.547-1.478
		c0.019,0.932,0.02,1.87,0.02,2.809c0-0.938,0-1.877-0.02-2.809c-0.214-0.806-0.316-1.646-0.324-2.479
		c-1.671-1.677-1.977-5.546-1.763-7.489c1.046,1.851,1.573,3.899,1.838,6.045c0.059-0.525,0.149-1.038,0.269-1.521
		c0.173,0.107,0.326,0.236,0.468,0.377c-0.268-2.678-0.586-5.768-0.894-8.844c-0.217-0.723-0.431-1.45-0.628-2.18
		c0.197,0.73,0.411,1.457,0.628,2.18c-0.206-2.063-0.407-4.119-0.583-6.04c-19.631-0.227-240.209-2.772-252.435-2.53
		c-12.795,0.255-14.101-0.763-14.362,9.8c-0.261,10.564,0,121.296,0,129.188c0,5.01,6.945,6.325,9.813,6.619
		c15.89,0.004,165.104,0.043,241.26,0.063c0.812-4.702,1.88-10.625,2.976-16.604c-0.244,0.361-0.489,0.727-0.735,1.098
		c0.436-1.762,0.875-3.345,1.46-5.045c0.393-2.126,0.782-4.228,1.158-6.251c-0.687,1.852-1.317,3.687-1.828,5.44
		c0.511-1.753,1.141-3.588,1.828-5.44c0.32-1.72,0.63-3.384,0.924-4.958c-0.766,2.328-1.515,4.643-2.224,6.937
		c0.709-2.294,1.458-4.609,2.224-6.937c1.386-7.418,2.416-12.844,2.416-12.844s0.122-0.445,0.31-1.127
		c-0.069-0.861-0.116-1.724-0.143-2.585c-0.458,1.624-0.99,3.242-1.646,4.86c0-2.907,0.654-7.355,1.68-11.222
		c0.069-2.381,0.165-4.763,0.165-7.145c0,2.382-0.096,4.764-0.165,7.145c0.405-1.523,0.867-2.957,1.37-4.17
		c-0.095-4.344,0.146-9.417,1.429-13.089c-1.283,3.672-1.524,8.745-1.429,13.089c0.207-0.499,0.42-0.962,0.639-1.377
		c-0.219,0.416-0.432,0.879-0.639,1.377c0.022,1.009,0.063,1.978,0.112,2.881c-0.05-0.903-0.09-1.872-0.112-2.881
		c-0.503,1.213-0.965,2.647-1.37,4.17c-0.062,2.121-0.102,4.241-0.035,6.361c1.2-4.253,1.88-8.543,2.833-12.973
		c0.015,0.036,0.026,0.075,0.039,0.112c0.212-2.649,0.436-5.636,0.655-8.601c-1.035-3.88,0.427-9.622,0.887-13.338
		c-0.459,3.716-1.922,9.458-0.887,13.338c0.461-6.264,0.897-12.431,1.129-15.123c0.071-0.815,0.207-1.979,0.389-3.391
		c-0.529,0.212-1.135,1.033-1.707,2.145c-0.164,2.247-0.242,4.502-0.242,6.758c0-2.255,0.078-4.511,0.242-6.758
		c-0.6,1.167-1.163,2.656-1.559,4.095c-1.845,5.058-2.372,9.849-2.372,15.438c0-5.589,0.527-10.381,2.372-15.438
		c0.396-1.439,0.958-2.928,1.559-4.095c0.358-4.914,1.128-9.788,2.393-14.537c0.674-2.608,1.443-4.83,2.104-7.036
		c0.814-5.595,1.496-10.473,1.624-12.381c-0.005-0.502-0.013-1.006-0.021-1.512C303.219,52.512,303.187,52.082,303.145,51.591z"/>
	<path fill="#5072B7" d="M291.969,124.017c0.212-0.762,0.4-1.43,0.527-1.863c0.091-0.31,0.213-1.295,0.356-2.743
		c-0.449,1.828-0.957,3.676-1.069,5.173C291.845,124.395,291.907,124.206,291.969,124.017z"/>
	<path fill="#5072B7" d="M294.203,6.849c0.034-0.105,0.069-0.212,0.104-0.319c-0.02,0.015-0.04,0.03-0.059,0.046
		C294.233,6.666,294.218,6.757,294.203,6.849z"/>
	<path fill="#5072B7" d="M44.083,174.041C45.315,174.163,45.669,174.074,44.083,174.041L44.083,174.041z"/>
	<path fill="#5072B7" d="M44.083,174.041c-0.036-0.003-0.073-0.007-0.11-0.012c-0.482,0-0.835,0-1.056,0
		C43.385,174.029,43.773,174.034,44.083,174.041z"/>
	<path fill="#5072B7" d="M42.917,174.029c-0.032,0-0.062,0-0.095,0C42.555,174.029,42.595,174.029,42.917,174.029z"/>
	<path fill="#BE6928" d="M41.494,177.739c-0.036-0.003-0.074-0.008-0.111-0.012c-0.484,0-0.839,0-1.062,0
		C40.791,177.728,41.181,177.732,41.494,177.739z"/>
	<path fill="#BE6928" d="M40.321,177.728c-0.034,0-0.065-0.001-0.1-0.001C39.95,177.726,39.992,177.726,40.321,177.728z"/>
	<path fill="#BE6928" d="M41.494,177.739C42.736,177.867,43.093,177.775,41.494,177.739L41.494,177.739z"/>
	<path fill="#BE6928" d="M297.74,29.127c0.003,0.004,0.005,0.008,0.008,0.012C297.746,29.135,297.743,29.131,297.74,29.127
		c-0.061-0.001-0.125-0.002-0.191-0.002c0.073,0.884,0.156,1.819,0.244,2.791c0.145,0.002,0.278,0.003,0.4,0.005
		c-0.128-0.928-0.246-1.858-0.347-2.792C297.812,29.127,297.777,29.127,297.74,29.127z"/>
	<path fill="#BE6928" d="M45.146,174.041C46.796,174.074,46.428,174.163,45.146,174.041c-0.323-0.007-0.726-0.012-1.212-0.012
		c-0.335,0-0.377,0-0.099,0c0.035,0,0.065,0,0.099,0c0.23,0,0.597,0,1.099,0c-2.871-0.292-9.823-1.598-9.823-6.574
		c0-7.838-0.261-117.825,0-128.318c0.262-10.493,1.569-9.481,14.376-9.734c12.237-0.242,233.025,2.286,252.673,2.512
		c-0.089-0.972-0.173-1.907-0.249-2.791C283.14,28.9,59.31,26.242,46.933,26.495c-12.923,0.265-14.241-0.792-14.505,10.18
		c-0.264,10.972,0,125.982,0,134.178c0,5.204,7.015,6.57,9.911,6.875c16.044,0.006,166.61,0.045,243.55,0.065
		c0.186-1.114,0.399-2.358,0.633-3.701c-76.229-0.019-225.584-0.057-241.489-0.063C45.071,174.034,45.109,174.038,45.146,174.041z"
		/>
	<polygon fill="#BE6928" points="60.072,28.952 60.072,174.029 63.792,174.029 63.792,28.952 61.932,28.952 	"/>
	<g>
		<g>
			<polyline fill="none" stroke="#FFFFFF" stroke-width="5" stroke-miterlimit="10" points="2.079,76.776 2.079,82.776 
				-3.868,82.776 -3.868,76.776 			"/>
			
				<line fill="none" stroke="#FFFFFF" stroke-width="5" stroke-miterlimit="10" stroke-dasharray="10.0603,10.0603" x1="-3.868" y1="66.716" x2="-3.868" y2="31.505"/>
			<polyline fill="none" stroke="#FFFFFF" stroke-width="5" stroke-miterlimit="10" points="-3.868,26.475 -3.868,20.475 
				2.079,20.475 2.079,26.475 			"/>
			
				<line fill="none" stroke="#FFFFFF" stroke-width="5" stroke-miterlimit="10" stroke-dasharray="10.0603,10.0603" x1="2.079" y1="36.535" x2="2.079" y2="71.746"/>
		</g>
	</g>
	<g>
		<g>
			<polyline fill="none" stroke="#FFFFFF" stroke-width="5" stroke-miterlimit="10" points="2.079,175.033 2.079,181.033 
				-3.868,181.033 -3.868,175.033 			"/>
			
				<line fill="none" stroke="#FFFFFF" stroke-width="5" stroke-miterlimit="10" stroke-dasharray="10.0603,10.0603" x1="-3.868" y1="164.973" x2="-3.868" y2="129.762"/>
			<polyline fill="none" stroke="#FFFFFF" stroke-width="5" stroke-miterlimit="10" points="-3.868,124.731 -3.868,118.731 
				2.079,118.731 2.079,124.731 			"/>
			
				<line fill="none" stroke="#FFFFFF" stroke-width="5" stroke-miterlimit="10" stroke-dasharray="10.0603,10.0603" x1="2.079" y1="134.792" x2="2.079" y2="170.002"/>
		</g>
	</g>
</g>
<g id="Layer_4" display="none">
	<g display="inline">
		<path fill="#5072B7" d="M362.695,1992.772h3309.367c0-107.558,229.002-194.871,512.638-196.028v-612.918
			c-163.965,0-296.888-78.207-296.888-174.684c0-96.472,132.923-174.682,296.888-174.682V221.542
			c-283.636-1.16-512.638-88.472-512.638-196.031H362.695c0,108.278-232.068,196.056-518.337,196.056
			c-9.556,0-19.05-0.104-28.477-0.297v613.19c163.963,0,296.883,78.21,296.883,174.682c0,96.477-132.92,174.684-296.883,174.684
			v613.189c9.426-0.195,18.92-0.297,28.477-0.297C130.627,1796.719,362.695,1884.493,362.695,1992.772z"/>
		<g>
			<rect x="4155.011" y="232.354" fill="#5072B7" width="28.48" height="618.357"/>
			<g>
				<polyline fill="none" stroke="#FFFFFF" stroke-width="8" stroke-miterlimit="10" points="4177.491,850.711 4183.491,850.711 
					4183.491,844.711 				"/>
				
					<line fill="none" stroke="#FFFFFF" stroke-width="8" stroke-miterlimit="10" stroke-dasharray="11.8894,11.8894" x1="4183.491" y1="832.821" x2="4183.491" y2="244.299"/>
				<polyline fill="none" stroke="#FFFFFF" stroke-width="8" stroke-miterlimit="10" points="4183.491,238.354 4183.491,232.354 
					4177.491,232.354 				"/>
				<polyline fill="none" stroke="#FFFFFF" stroke-width="8" stroke-miterlimit="10" points="4161.011,232.354 4155.011,232.354 
					4155.011,238.354 				"/>
				
					<line fill="none" stroke="#FFFFFF" stroke-width="8" stroke-miterlimit="10" stroke-dasharray="11.8894,11.8894" x1="4155.011" y1="250.243" x2="4155.011" y2="838.767"/>
				<polyline fill="none" stroke="#FFFFFF" stroke-width="8" stroke-miterlimit="10" points="4155.011,844.711 4155.011,850.711 
					4161.011,850.711 				"/>
			</g>
		</g>
		<g>
			<rect x="4160.704" y="1189.961" fill="#5072B7" width="28.481" height="618.359"/>
			<g>
				<polyline fill="none" stroke="#FFFFFF" stroke-width="8" stroke-miterlimit="10" points="4183.186,1808.32 4189.186,1808.32 
					4189.186,1802.32 				"/>
				
					<line fill="none" stroke="#FFFFFF" stroke-width="8" stroke-miterlimit="10" stroke-dasharray="11.8894,11.8894" x1="4189.186" y1="1790.431" x2="4189.186" y2="1201.905"/>
				<polyline fill="none" stroke="#FFFFFF" stroke-width="8" stroke-miterlimit="10" points="4189.186,1195.961 4189.186,1189.961 
					4183.186,1189.961 				"/>
				<polyline fill="none" stroke="#FFFFFF" stroke-width="8" stroke-miterlimit="10" points="4166.704,1189.961 4160.704,1189.961 
					4160.704,1195.961 				"/>
				
					<line fill="none" stroke="#FFFFFF" stroke-width="8" stroke-miterlimit="10" stroke-dasharray="11.8894,11.8894" x1="4160.704" y1="1207.851" x2="4160.704" y2="1796.376"/>
				<polyline fill="none" stroke="#FFFFFF" stroke-width="8" stroke-miterlimit="10" points="4160.704,1802.32 4160.704,1808.32 
					4166.704,1808.32 				"/>
			</g>
		</g>
		<g>
			<rect x="-209.5" y="1185.536" fill="#5072B7" width="28.481" height="618.356"/>
			<g>
				<polyline fill="none" stroke="#FFFFFF" stroke-width="8" stroke-miterlimit="10" points="-187.019,1803.893 -181.019,1803.893 
					-181.019,1797.893 				"/>
				
					<line fill="none" stroke="#FFFFFF" stroke-width="8" stroke-miterlimit="10" stroke-dasharray="11.8893,11.8893" x1="-181.019" y1="1786.003" x2="-181.019" y2="1197.48"/>
				<polyline fill="none" stroke="#FFFFFF" stroke-width="8" stroke-miterlimit="10" points="-181.019,1191.536 -181.019,1185.536 
					-187.019,1185.536 				"/>
				<polyline fill="none" stroke="#FFFFFF" stroke-width="8" stroke-miterlimit="10" points="-203.5,1185.536 -209.5,1185.536 
					-209.5,1191.536 				"/>
				
					<line fill="none" stroke="#FFFFFF" stroke-width="8" stroke-miterlimit="10" stroke-dasharray="11.8893,11.8893" x1="-209.5" y1="1203.426" x2="-209.5" y2="1791.948"/>
				<polyline fill="none" stroke="#FFFFFF" stroke-width="8" stroke-miterlimit="10" points="-209.5,1797.893 -209.5,1803.893 
					-203.5,1803.893 				"/>
			</g>
		</g>
	</g>
</g>
<g id="Layer_1">
	<rect x="58.942" y="19.641" fill-rule="evenodd" clip-rule="evenodd" fill="#FFFFFF" width="0" height="0"/>
	<rect x="58.942" y="19.641" fill-rule="evenodd" clip-rule="evenodd" fill="#FFFFFF" width="0" height="0"/>
	<rect x="58.942" y="19.641" fill-rule="evenodd" clip-rule="evenodd" fill="#FFFFFF" width="0" height="0"/>
	<rect x="58.942" y="19.641" fill-rule="evenodd" clip-rule="evenodd" fill="#FFFFFF" width="0" height="0"/>
	<rect x="58.942" y="19.641" fill-rule="evenodd" clip-rule="evenodd" fill="#FFFFFF" width="0" height="0"/>
	<rect x="58.942" y="19.641" fill-rule="evenodd" clip-rule="evenodd" fill="#FFFFFF" width="0" height="0"/>
	<rect x="58.942" y="19.641" fill-rule="evenodd" clip-rule="evenodd" fill="#FFFFFF" width="0" height="0"/>
	<rect x="58.942" y="19.641" fill-rule="evenodd" clip-rule="evenodd" fill="#FFFFFF" width="0" height="0"/>
	<rect x="58.942" y="19.641" fill-rule="evenodd" clip-rule="evenodd" fill="#FFFFFF" width="0" height="0"/>
	<rect x="58.942" y="19.641" fill-rule="evenodd" clip-rule="evenodd" fill="#FFFFFF" width="0" height="0"/>
	<rect x="58.942" y="19.641" fill-rule="evenodd" clip-rule="evenodd" fill="#FFFFFF" width="0" height="0"/>
	<rect x="58.942" y="19.641" fill-rule="evenodd" clip-rule="evenodd" fill="#FFFFFF" width="0" height="0"/>
	<rect x="58.942" y="19.641" fill-rule="evenodd" clip-rule="evenodd" fill="#FFFFFF" width="0" height="0"/>
	<rect x="58.942" y="19.641" fill-rule="evenodd" clip-rule="evenodd" fill="#FFFFFF" width="0" height="0"/>
	<rect x="58.942" y="19.641" fill-rule="evenodd" clip-rule="evenodd" fill="#FFFFFF" width="0" height="0"/>
	<rect x="58.942" y="19.641" fill-rule="evenodd" clip-rule="evenodd" fill="#FFFFFF" width="0" height="0"/>
	<rect x="58.942" y="19.641" fill-rule="evenodd" clip-rule="evenodd" fill="#FFFFFF" width="0" height="0"/>
	<rect x="58.942" y="19.641" fill-rule="evenodd" clip-rule="evenodd" fill="#FFFFFF" width="0" height="0"/>
	<rect x="58.942" y="19.641" fill-rule="evenodd" clip-rule="evenodd" fill="#FFFFFF" width="0" height="0"/>
	<rect x="58.942" y="19.641" fill-rule="evenodd" clip-rule="evenodd" fill="#FFFFFF" width="0" height="0"/>
	<rect x="58.942" y="19.641" fill-rule="evenodd" clip-rule="evenodd" fill="#FFFFFF" width="0" height="0"/>
	<rect x="58.942" y="19.641" fill-rule="evenodd" clip-rule="evenodd" fill="#FFFFFF" width="0" height="0"/>
	<rect x="58.942" y="19.641" fill-rule="evenodd" clip-rule="evenodd" fill="#FFFFFF" width="0" height="0"/>
	<rect x="58.942" y="19.641" fill-rule="evenodd" clip-rule="evenodd" fill="#FFFFFF" width="0" height="0"/>
	<rect x="58.942" y="19.641" fill-rule="evenodd" clip-rule="evenodd" fill="#FFFFFF" width="0" height="0"/>
	<rect x="58.942" y="19.641" fill-rule="evenodd" clip-rule="evenodd" fill="#FFFFFF" width="0" height="0"/>
	<rect x="58.942" y="19.641" fill-rule="evenodd" clip-rule="evenodd" fill="#FFFFFF" width="0" height="0"/>
	<rect x="58.942" y="19.641" fill-rule="evenodd" clip-rule="evenodd" fill="#FFFFFF" width="0" height="0"/>
	<rect x="58.942" y="19.641" fill-rule="evenodd" clip-rule="evenodd" fill="#FFFFFF" width="0" height="0"/>
	<rect x="58.942" y="19.641" fill-rule="evenodd" clip-rule="evenodd" fill="#FFFFFF" width="0" height="0"/>
	<rect x="58.942" y="19.641" fill-rule="evenodd" clip-rule="evenodd" fill="#FFFFFF" width="0" height="0"/>
	<rect x="58.942" y="19.641" fill-rule="evenodd" clip-rule="evenodd" fill="#FFFFFF" width="0" height="0"/>
	<rect x="58.942" y="19.641" fill-rule="evenodd" clip-rule="evenodd" fill="#FFFFFF" width="0" height="0"/>
	<rect x="58.942" y="19.641" fill-rule="evenodd" clip-rule="evenodd" fill="#FFFFFF" width="0" height="0"/>
	<rect x="58.942" y="19.641" fill-rule="evenodd" clip-rule="evenodd" fill="#FFFFFF" width="0" height="0"/>
	<rect x="58.942" y="19.641" fill-rule="evenodd" clip-rule="evenodd" fill="#FFFFFF" width="0" height="0"/>
	<rect x="58.942" y="19.641" fill-rule="evenodd" clip-rule="evenodd" fill="#FFFFFF" width="0" height="0"/>
	<rect x="58.942" y="19.641" fill-rule="evenodd" clip-rule="evenodd" fill="#FFFFFF" width="0" height="0"/>
	<rect x="58.942" y="19.641" fill-rule="evenodd" clip-rule="evenodd" fill="#FFFFFF" width="0" height="0"/>
	<rect x="58.942" y="19.641" fill-rule="evenodd" clip-rule="evenodd" fill="#FFFFFF" width="0" height="0"/>
	<rect x="58.942" y="19.641" fill-rule="evenodd" clip-rule="evenodd" fill="#FFFFFF" width="0" height="0"/>
	<rect x="58.942" y="19.641" fill-rule="evenodd" clip-rule="evenodd" fill="#FFFFFF" width="0" height="0"/>
	<rect x="58.942" y="19.641" fill-rule="evenodd" clip-rule="evenodd" fill="#FFFFFF" width="0" height="0"/>
	<rect x="58.942" y="19.641" fill-rule="evenodd" clip-rule="evenodd" fill="#FFFFFF" width="0" height="0"/>
	<rect x="58.942" y="19.641" fill-rule="evenodd" clip-rule="evenodd" fill="#FFFFFF" width="0" height="0"/>
	<rect x="58.942" y="19.641" fill-rule="evenodd" clip-rule="evenodd" fill="#FFFFFF" width="0" height="0"/>
	<rect x="58.942" y="19.641" fill-rule="evenodd" clip-rule="evenodd" fill="#FFFFFF" width="0" height="0"/>
	<rect x="58.942" y="19.641" fill-rule="evenodd" clip-rule="evenodd" fill="#FFFFFF" width="0" height="0"/>
	<rect x="58.942" y="19.641" fill-rule="evenodd" clip-rule="evenodd" fill="#FFFFFF" width="0" height="0"/>
	<rect x="58.942" y="19.641" fill-rule="evenodd" clip-rule="evenodd" fill="#FFFFFF" width="0" height="0"/>
	<rect x="58.942" y="19.641" fill-rule="evenodd" clip-rule="evenodd" fill="#FFFFFF" width="0" height="0"/>
	<rect x="58.942" y="19.641" fill-rule="evenodd" clip-rule="evenodd" fill="#FFFFFF" width="0" height="0"/>
	<rect x="58.942" y="19.641" fill-rule="evenodd" clip-rule="evenodd" fill="#FFFFFF" width="0" height="0"/>
	<rect x="58.942" y="19.641" fill-rule="evenodd" clip-rule="evenodd" fill="#FFFFFF" width="0" height="0"/>
	<rect x="58.942" y="19.641" fill-rule="evenodd" clip-rule="evenodd" fill="#FFFFFF" width="0" height="0"/>
	<rect x="58.942" y="19.641" fill-rule="evenodd" clip-rule="evenodd" fill="#FFFFFF" width="0" height="0"/>
	<rect x="58.942" y="19.641" fill-rule="evenodd" clip-rule="evenodd" fill="#FFFFFF" width="0" height="0"/>
	<rect x="58.942" y="19.641" fill-rule="evenodd" clip-rule="evenodd" fill="#FFFFFF" width="0" height="0"/>
	<rect x="58.942" y="19.641" fill-rule="evenodd" clip-rule="evenodd" fill="#FFFFFF" width="0" height="0"/>
	<rect x="58.942" y="19.641" fill-rule="evenodd" clip-rule="evenodd" fill="#FFFFFF" width="0" height="0"/>
	<rect x="58.942" y="19.641" fill-rule="evenodd" clip-rule="evenodd" fill="#FFFFFF" width="0" height="0"/>
	<rect x="58.942" y="19.641" fill-rule="evenodd" clip-rule="evenodd" fill="#FFFFFF" width="0" height="0"/>
	<rect x="58.942" y="19.641" fill-rule="evenodd" clip-rule="evenodd" fill="#FFFFFF" width="0" height="0"/>
	<rect x="58.942" y="19.641" fill-rule="evenodd" clip-rule="evenodd" fill="#FFFFFF" width="0" height="0"/>
	<rect x="58.942" y="19.641" fill-rule="evenodd" clip-rule="evenodd" fill="#FFFFFF" width="0" height="0"/>
	<rect x="58.942" y="19.641" fill-rule="evenodd" clip-rule="evenodd" fill="#FFFFFF" width="0" height="0"/>
	<rect x="58.942" y="19.641" fill-rule="evenodd" clip-rule="evenodd" fill="#FFFFFF" width="0" height="0"/>
	<rect x="58.942" y="19.641" fill-rule="evenodd" clip-rule="evenodd" fill="#FFFFFF" width="0" height="0"/>
	<rect x="58.942" y="19.641" fill-rule="evenodd" clip-rule="evenodd" fill="#FFFFFF" width="0" height="0"/>
	<rect x="58.942" y="19.641" fill-rule="evenodd" clip-rule="evenodd" fill="#FFFFFF" width="0" height="0"/>
	<rect x="58.942" y="19.641" fill-rule="evenodd" clip-rule="evenodd" fill="#FFFFFF" width="0" height="0"/>
	<rect x="58.942" y="19.641" fill-rule="evenodd" clip-rule="evenodd" fill="#FFFFFF" width="0" height="0"/>
	<rect x="58.942" y="19.641" fill-rule="evenodd" clip-rule="evenodd" fill="#FFFFFF" width="0" height="0"/>
	<rect x="58.942" y="19.641" fill-rule="evenodd" clip-rule="evenodd" fill="#FFFFFF" width="0" height="0"/>
	<rect x="58.942" y="19.641" fill-rule="evenodd" clip-rule="evenodd" fill="#FFFFFF" width="0" height="0"/>
	<rect x="58.942" y="19.641" fill-rule="evenodd" clip-rule="evenodd" fill="#FFFFFF" width="0" height="0"/>
	<rect x="58.942" y="19.641" fill-rule="evenodd" clip-rule="evenodd" fill="#FFFFFF" width="0" height="0"/>
	<rect x="58.942" y="19.641" fill-rule="evenodd" clip-rule="evenodd" fill="#FFFFFF" width="0" height="0"/>
	<rect x="58.942" y="19.641" fill-rule="evenodd" clip-rule="evenodd" fill="#FFFFFF" width="0" height="0"/>
	<rect x="58.942" y="19.641" fill-rule="evenodd" clip-rule="evenodd" fill="#FFFFFF" width="0" height="0"/>
	<rect x="58.942" y="19.641" fill-rule="evenodd" clip-rule="evenodd" fill="#FFFFFF" width="0" height="0"/>
	<rect x="58.942" y="19.641" fill-rule="evenodd" clip-rule="evenodd" fill="#FFFFFF" width="0" height="0"/>
	<rect x="58.942" y="19.641" fill-rule="evenodd" clip-rule="evenodd" fill="#FFFFFF" width="0" height="0"/>
	<rect x="58.942" y="19.641" fill-rule="evenodd" clip-rule="evenodd" fill="#FFFFFF" width="0" height="0"/>
	<rect x="58.942" y="19.641" fill-rule="evenodd" clip-rule="evenodd" fill="#FFFFFF" width="0" height="0"/>
	<rect x="58.942" y="19.641" fill-rule="evenodd" clip-rule="evenodd" fill="#FFFFFF" width="0" height="0"/>
	<rect x="58.942" y="19.641" fill-rule="evenodd" clip-rule="evenodd" fill="#FFFFFF" width="0" height="0"/>
	<rect x="58.942" y="19.641" fill-rule="evenodd" clip-rule="evenodd" fill="#FFFFFF" width="0" height="0"/>
	<rect x="58.942" y="19.641" fill-rule="evenodd" clip-rule="evenodd" fill="#FFFFFF" width="0" height="0"/>
	<rect x="58.942" y="19.641" fill-rule="evenodd" clip-rule="evenodd" fill="#FFFFFF" width="0" height="0"/>
	<rect x="58.942" y="19.641" fill-rule="evenodd" clip-rule="evenodd" fill="#FFFFFF" width="0" height="0"/>
	<rect x="58.942" y="19.641" fill-rule="evenodd" clip-rule="evenodd" fill="#FFFFFF" width="0" height="0"/>
	<rect x="58.942" y="19.641" fill-rule="evenodd" clip-rule="evenodd" fill="#FFFFFF" width="0" height="0"/>
	<rect x="58.942" y="19.641" fill-rule="evenodd" clip-rule="evenodd" fill="#FFFFFF" width="0" height="0"/>
	<rect x="58.942" y="19.641" fill-rule="evenodd" clip-rule="evenodd" fill="#FFFFFF" width="0" height="0"/>
	<rect x="58.942" y="19.641" fill-rule="evenodd" clip-rule="evenodd" fill="#FFFFFF" width="0" height="0"/>
	<rect x="58.942" y="19.641" fill-rule="evenodd" clip-rule="evenodd" fill="#FFFFFF" width="0" height="0"/>
	<rect x="58.942" y="19.641" fill-rule="evenodd" clip-rule="evenodd" fill="#FFFFFF" width="0" height="0"/>
	<rect x="58.942" y="19.641" fill-rule="evenodd" clip-rule="evenodd" fill="#FFFFFF" width="0" height="0"/>
	<rect x="58.942" y="19.641" fill-rule="evenodd" clip-rule="evenodd" fill="#FFFFFF" width="0" height="0"/>
	<rect x="58.942" y="19.641" fill-rule="evenodd" clip-rule="evenodd" fill="#FFFFFF" width="0" height="0"/>
	<rect x="58.942" y="19.641" fill-rule="evenodd" clip-rule="evenodd" fill="#FFFFFF" width="0" height="0"/>
	<rect x="58.942" y="19.641" fill-rule="evenodd" clip-rule="evenodd" fill="#FFFFFF" width="0" height="0"/>
	<rect x="58.942" y="19.641" fill-rule="evenodd" clip-rule="evenodd" fill="#FFFFFF" width="0" height="0"/>
	<rect x="58.942" y="19.641" fill-rule="evenodd" clip-rule="evenodd" fill="#FFFFFF" width="0" height="0"/>
	<rect x="58.942" y="19.641" fill-rule="evenodd" clip-rule="evenodd" fill="#FFFFFF" width="0" height="0"/>
	<rect x="58.942" y="19.641" fill-rule="evenodd" clip-rule="evenodd" fill="#FFFFFF" width="0" height="0"/>
	<rect x="58.942" y="19.641" fill-rule="evenodd" clip-rule="evenodd" fill="#FFFFFF" width="0" height="0"/>
	<rect x="58.942" y="19.641" fill-rule="evenodd" clip-rule="evenodd" fill="#FFFFFF" width="0" height="0"/>
	<rect x="58.942" y="19.641" fill-rule="evenodd" clip-rule="evenodd" fill="#FFFFFF" width="0" height="0"/>
	<rect x="58.942" y="19.641" fill-rule="evenodd" clip-rule="evenodd" fill="#FFFFFF" width="0" height="0"/>
	<rect x="58.942" y="19.641" fill-rule="evenodd" clip-rule="evenodd" fill="#FFFFFF" width="0" height="0"/>
	<rect x="58.942" y="19.641" fill-rule="evenodd" clip-rule="evenodd" fill="#FFFFFF" width="0" height="0"/>
	<rect x="58.942" y="19.641" fill-rule="evenodd" clip-rule="evenodd" fill="#FFFFFF" width="0" height="0"/>
	<rect x="58.942" y="19.641" fill-rule="evenodd" clip-rule="evenodd" fill="#FFFFFF" width="0" height="0"/>
	<rect x="58.942" y="19.641" fill-rule="evenodd" clip-rule="evenodd" fill="#FFFFFF" width="0" height="0"/>
	<rect x="58.942" y="19.641" fill-rule="evenodd" clip-rule="evenodd" fill="#FFFFFF" width="0" height="0"/>
	<rect x="58.942" y="19.641" fill-rule="evenodd" clip-rule="evenodd" fill="#FFFFFF" width="0" height="0"/>
	<rect x="58.942" y="19.641" fill-rule="evenodd" clip-rule="evenodd" fill="#FFFFFF" width="0" height="0"/>
	<rect x="58.942" y="19.641" fill-rule="evenodd" clip-rule="evenodd" fill="#FFFFFF" width="0" height="0"/>
	<rect x="58.942" y="19.641" fill-rule="evenodd" clip-rule="evenodd" fill="#FFFFFF" width="0" height="0"/>
	<rect x="58.942" y="19.641" fill-rule="evenodd" clip-rule="evenodd" fill="#FFFFFF" width="0" height="0"/>
	<rect x="58.942" y="19.641" fill-rule="evenodd" clip-rule="evenodd" fill="#FFFFFF" width="0" height="0"/>
	<rect x="58.942" y="19.641" fill-rule="evenodd" clip-rule="evenodd" fill="#FFFFFF" width="0" height="0"/>
	<rect x="58.942" y="19.641" fill-rule="evenodd" clip-rule="evenodd" fill="#FFFFFF" width="0" height="0"/>
	<rect x="58.942" y="19.641" fill-rule="evenodd" clip-rule="evenodd" fill="#FFFFFF" width="0" height="0"/>
	<rect x="58.942" y="19.641" fill-rule="evenodd" clip-rule="evenodd" fill="#FFFFFF" width="0" height="0"/>
	<rect x="58.942" y="19.641" fill-rule="evenodd" clip-rule="evenodd" fill="#FFFFFF" width="0" height="0"/>
	<rect x="58.942" y="19.641" fill-rule="evenodd" clip-rule="evenodd" fill="#FFFFFF" width="0" height="0"/>
	<rect x="58.942" y="19.641" fill-rule="evenodd" clip-rule="evenodd" fill="#FFFFFF" width="0" height="0"/>
	<rect x="58.942" y="19.641" fill-rule="evenodd" clip-rule="evenodd" fill="#FFFFFF" width="0" height="0"/>
	<rect x="58.942" y="19.641" fill-rule="evenodd" clip-rule="evenodd" fill="#FFFFFF" width="0" height="0"/>
	<rect x="58.942" y="19.641" fill-rule="evenodd" clip-rule="evenodd" fill="#FFFFFF" width="0" height="0"/>
	<rect x="58.942" y="19.641" fill-rule="evenodd" clip-rule="evenodd" fill="#FFFFFF" width="0" height="0"/>
	<rect x="58.942" y="19.641" fill-rule="evenodd" clip-rule="evenodd" fill="#FFFFFF" width="0" height="0"/>
	<rect x="58.942" y="19.641" fill-rule="evenodd" clip-rule="evenodd" fill="#FFFFFF" width="0" height="0"/>
	<rect x="58.942" y="19.641" fill-rule="evenodd" clip-rule="evenodd" fill="#FFFFFF" width="0" height="0"/>
	<rect x="58.942" y="19.641" fill-rule="evenodd" clip-rule="evenodd" fill="#FFFFFF" width="0" height="0"/>
	<rect x="58.942" y="19.641" fill-rule="evenodd" clip-rule="evenodd" fill="#FFFFFF" width="0" height="0"/>
	<rect x="58.942" y="19.641" fill-rule="evenodd" clip-rule="evenodd" fill="#FFFFFF" width="0" height="0"/>
	<rect x="58.942" y="19.641" fill-rule="evenodd" clip-rule="evenodd" fill="#FFFFFF" width="0" height="0"/>
	<rect x="58.942" y="19.641" fill-rule="evenodd" clip-rule="evenodd" fill="#FFFFFF" width="0" height="0"/>
	<rect x="58.942" y="19.641" fill-rule="evenodd" clip-rule="evenodd" fill="#FFFFFF" width="0" height="0"/>
	<rect x="58.942" y="19.641" fill-rule="evenodd" clip-rule="evenodd" fill="#FFFFFF" width="0" height="0"/>
	<rect x="58.942" y="19.641" fill-rule="evenodd" clip-rule="evenodd" fill="#FFFFFF" width="0" height="0"/>
	<rect x="58.942" y="19.641" fill-rule="evenodd" clip-rule="evenodd" fill="#FFFFFF" width="0" height="0"/>
	<rect x="58.942" y="19.641" fill-rule="evenodd" clip-rule="evenodd" fill="#FFFFFF" width="0" height="0"/>
	<rect x="58.942" y="19.641" fill-rule="evenodd" clip-rule="evenodd" fill="#FFFFFF" width="0" height="0"/>
	<rect x="58.942" y="19.641" fill-rule="evenodd" clip-rule="evenodd" fill="#FFFFFF" width="0" height="0"/>
	<rect x="58.942" y="19.641" fill-rule="evenodd" clip-rule="evenodd" fill="#FFFFFF" width="0" height="0"/>
	<rect x="58.942" y="19.641" fill-rule="evenodd" clip-rule="evenodd" fill="#FFFFFF" width="0" height="0"/>
	<rect x="58.942" y="19.641" fill-rule="evenodd" clip-rule="evenodd" fill="#FFFFFF" width="0" height="0"/>
	<rect x="58.942" y="19.641" fill-rule="evenodd" clip-rule="evenodd" fill="#FFFFFF" width="0" height="0"/>
	<rect x="58.942" y="19.641" fill-rule="evenodd" clip-rule="evenodd" fill="#FFFFFF" width="0" height="0"/>
	<rect x="58.942" y="19.641" fill-rule="evenodd" clip-rule="evenodd" fill="#FFFFFF" width="0" height="0"/>
	<rect x="58.942" y="19.641" fill-rule="evenodd" clip-rule="evenodd" fill="#FFFFFF" width="0" height="0"/>
	<rect x="58.942" y="19.641" fill-rule="evenodd" clip-rule="evenodd" fill="#FFFFFF" width="0" height="0"/>
	<rect x="58.942" y="19.641" fill-rule="evenodd" clip-rule="evenodd" fill="#FFFFFF" width="0" height="0"/>
	<rect x="58.942" y="19.641" fill-rule="evenodd" clip-rule="evenodd" fill="#FFFFFF" width="0" height="0"/>
	<rect x="58.942" y="19.641" fill-rule="evenodd" clip-rule="evenodd" fill="#FFFFFF" width="0" height="0"/>
	<rect x="58.942" y="19.641" fill-rule="evenodd" clip-rule="evenodd" fill="#FFFFFF" width="0" height="0"/>
	<rect x="58.942" y="19.641" fill-rule="evenodd" clip-rule="evenodd" fill="#FFFFFF" width="0" height="0"/>
	<rect x="58.942" y="19.641" fill-rule="evenodd" clip-rule="evenodd" fill="#FFFFFF" width="0" height="0"/>
	<rect x="58.942" y="19.641" fill-rule="evenodd" clip-rule="evenodd" fill="#FFFFFF" width="0" height="0"/>
	<rect x="58.942" y="19.641" fill-rule="evenodd" clip-rule="evenodd" fill="#FFFFFF" width="0" height="0"/>
	<rect x="58.942" y="19.641" fill-rule="evenodd" clip-rule="evenodd" fill="#FFFFFF" width="0" height="0"/>
	<rect x="58.942" y="19.641" fill-rule="evenodd" clip-rule="evenodd" fill="#FFFFFF" width="0" height="0"/>
	<rect x="58.942" y="19.641" fill-rule="evenodd" clip-rule="evenodd" fill="#FFFFFF" width="0" height="0"/>
	<rect x="58.942" y="19.641" fill-rule="evenodd" clip-rule="evenodd" fill="#FFFFFF" width="0" height="0"/>
	<rect x="58.942" y="19.641" fill-rule="evenodd" clip-rule="evenodd" fill="#FFFFFF" width="0" height="0"/>
	<rect x="58.942" y="19.641" fill-rule="evenodd" clip-rule="evenodd" fill="#FFFFFF" width="0" height="0"/>
	<rect x="58.942" y="19.641" fill-rule="evenodd" clip-rule="evenodd" fill="#FFFFFF" width="0" height="0"/>
	<rect x="58.942" y="19.641" fill-rule="evenodd" clip-rule="evenodd" fill="#FFFFFF" width="0" height="0"/>
	<rect x="58.942" y="19.641" fill-rule="evenodd" clip-rule="evenodd" fill="#FFFFFF" width="0" height="0"/>
	<rect x="58.942" y="19.641" fill-rule="evenodd" clip-rule="evenodd" fill="#FFFFFF" width="0" height="0"/>
	<rect x="58.942" y="19.641" fill-rule="evenodd" clip-rule="evenodd" fill="#FFFFFF" width="0" height="0"/>
	<rect x="58.942" y="19.641" fill-rule="evenodd" clip-rule="evenodd" fill="#FFFFFF" width="0" height="0"/>
	<rect x="58.942" y="19.641" fill-rule="evenodd" clip-rule="evenodd" fill="#FFFFFF" width="0" height="0"/>
	<rect x="58.942" y="19.641" fill-rule="evenodd" clip-rule="evenodd" fill="#FFFFFF" width="0" height="0"/>
	<rect x="58.942" y="19.641" fill-rule="evenodd" clip-rule="evenodd" fill="#FFFFFF" width="0" height="0"/>
	<rect x="58.942" y="19.641" fill-rule="evenodd" clip-rule="evenodd" fill="#FFFFFF" width="0" height="0"/>
	<rect x="58.942" y="19.641" fill-rule="evenodd" clip-rule="evenodd" fill="#FFFFFF" width="0" height="0"/>
	<rect x="58.942" y="19.641" fill-rule="evenodd" clip-rule="evenodd" fill="#FFFFFF" width="0" height="0"/>
	<rect x="58.942" y="19.641" fill-rule="evenodd" clip-rule="evenodd" fill="#FFFFFF" width="0" height="0"/>
	<rect x="58.942" y="19.641" fill-rule="evenodd" clip-rule="evenodd" fill="#FFFFFF" width="0" height="0"/>
	<rect x="58.942" y="19.641" fill-rule="evenodd" clip-rule="evenodd" fill="#FFFFFF" width="0" height="0"/>
	<rect x="58.942" y="19.641" fill-rule="evenodd" clip-rule="evenodd" fill="#FFFFFF" width="0" height="0"/>
	<rect x="58.942" y="19.641" fill-rule="evenodd" clip-rule="evenodd" fill="#FFFFFF" width="0" height="0"/>
	<rect x="58.942" y="19.641" fill-rule="evenodd" clip-rule="evenodd" fill="#FFFFFF" width="0" height="0"/>
	<rect x="58.942" y="19.641" fill-rule="evenodd" clip-rule="evenodd" fill="#FFFFFF" width="0" height="0"/>
	<rect x="58.942" y="19.641" fill-rule="evenodd" clip-rule="evenodd" fill="#FFFFFF" width="0" height="0"/>
	<rect x="58.942" y="19.641" fill-rule="evenodd" clip-rule="evenodd" fill="#FFFFFF" width="0" height="0"/>
	<rect x="58.942" y="19.641" fill-rule="evenodd" clip-rule="evenodd" fill="#FFFFFF" width="0" height="0"/>
	<rect x="58.942" y="19.641" fill-rule="evenodd" clip-rule="evenodd" fill="#FFFFFF" width="0" height="0"/>
	<rect x="58.942" y="19.641" fill-rule="evenodd" clip-rule="evenodd" fill="#FFFFFF" width="0" height="0"/>
	<rect x="58.942" y="19.641" fill-rule="evenodd" clip-rule="evenodd" fill="#FFFFFF" width="0" height="0"/>
	<rect x="58.942" y="19.641" fill-rule="evenodd" clip-rule="evenodd" fill="#FFFFFF" width="0" height="0"/>
	<rect x="58.942" y="19.641" fill-rule="evenodd" clip-rule="evenodd" fill="#FFFFFF" width="0" height="0"/>
	<rect x="58.942" y="19.641" fill-rule="evenodd" clip-rule="evenodd" fill="#FFFFFF" width="0" height="0"/>
	<rect x="58.942" y="19.641" fill-rule="evenodd" clip-rule="evenodd" fill="#FFFFFF" width="0" height="0"/>
	<rect x="58.942" y="19.641" fill-rule="evenodd" clip-rule="evenodd" fill="#FFFFFF" width="0" height="0"/>
	<rect x="58.942" y="19.641" fill-rule="evenodd" clip-rule="evenodd" fill="#FFFFFF" width="0" height="0"/>
	<rect x="58.942" y="19.641" fill-rule="evenodd" clip-rule="evenodd" fill="#FFFFFF" width="0" height="0"/>
	<rect x="58.942" y="19.641" fill-rule="evenodd" clip-rule="evenodd" fill="#FFFFFF" width="0" height="0"/>
	<rect x="58.942" y="19.641" fill-rule="evenodd" clip-rule="evenodd" fill="#FFFFFF" width="0" height="0"/>
	<rect x="58.942" y="19.641" fill-rule="evenodd" clip-rule="evenodd" fill="#FFFFFF" width="0" height="0"/>
	<rect x="58.942" y="19.641" fill-rule="evenodd" clip-rule="evenodd" fill="#FFFFFF" width="0" height="0"/>
	<rect x="58.942" y="19.641" fill-rule="evenodd" clip-rule="evenodd" fill="#FFFFFF" width="0" height="0"/>
	<g>
		<text transform="matrix(0.9378 0 0 1 64.9478 43.6797)"><tspan x="0" y="0" fill="#FEE019" font-family="'ArialMT'" font-size="12.6907">Top Grossing Movies in the </tspan><tspan x="39.141" y="15.863" fill="#FEE019" font-family="'ArialMT'" font-size="12.6907">Past 31 Years</tspan></text>
	</g>
	<g>
		<path fill-rule="evenodd" clip-rule="evenodd" fill="#174884" d="M231.794,130.725c-1.475,0-2.936,0.256-4.338,0.759
			c-1.224,0.439-2.389,1.064-3.46,1.858l7.799,12.922l0,0l0,0V130.725L231.794,130.725z"/>
		<path fill-rule="evenodd" clip-rule="evenodd" fill="#EF4823" d="M223.995,133.342c-0.152,0.111-0.304,0.229-0.452,0.348
			c-1.192,0.958-2.241,2.118-3.105,3.438c-0.865,1.32-1.537,2.782-1.992,4.332c-0.455,1.553-0.687,3.172-0.687,4.801
			c0,1.633,0.231,3.25,0.687,4.803c0.455,1.549,1.127,3.012,1.992,4.332c0.865,1.321,1.913,2.481,3.105,3.439
			c1.193,0.958,2.512,1.702,3.912,2.205c0.523,0.191,1.057,0.344,1.599,0.462l2.739-15.238l0,0l0,0l0,0l0,0l0,0l0,0l0,0l0,0l0,0
			L223.995,133.342L223.995,133.342z"/>
		<path fill-rule="evenodd" clip-rule="evenodd" fill="#FFD320" d="M229.055,161.501c0.903,0.198,1.82,0.301,2.736,0.301
			c1.476,0,2.937-0.259,4.339-0.764c1.399-0.503,2.72-1.247,3.912-2.205s2.239-2.118,3.105-3.439
			c0.865-1.32,1.537-2.782,1.992-4.332c0.455-1.553,0.689-3.17,0.689-4.8c0-1.633-0.234-3.251-0.689-4.805
			c-0.455-1.549-1.126-3.011-1.992-4.332c-0.434-0.661-0.91-1.278-1.431-1.854l-9.922,10.99l0,0l0,0l0,0l0,0l0,0l0,0l0,0l0,0l0,0
			L229.055,161.501L229.055,161.501z"/>
		<path fill-rule="evenodd" clip-rule="evenodd" fill="#579D44" d="M241.716,135.273c-0.52-0.577-1.079-1.104-1.674-1.584
			c-1.192-0.958-2.513-1.702-3.912-2.206c-1.403-0.503-2.864-0.759-4.336-0.759v15.539l0,0l0,0l0,0L241.716,135.273L241.716,135.273
			z"/>
	</g>
	<text transform="matrix(0.9031 0 0 1 194.6953 123.9111)" fill="#FFFFFF" font-family="'ArialMT'" font-size="3.2696">G (9.375%)</text>
	<line fill="none" stroke="#000000" stroke-miterlimit="10" x1="222.257" y1="122.998" x2="225.692" y2="127.489"/>
	<line fill="none" stroke="#000000" stroke-miterlimit="10" x1="241.8" y1="128.514" x2="247.386" y2="123.912"/>
	<text transform="matrix(0.9031 0 0 1 255.9961 124.542)" fill="#FFFFFF" font-family="'ArialMT'" font-size="3.2696">R (12.5%)</text>
	<line fill="none" stroke="#000000" stroke-miterlimit="10" x1="222.257" y1="122.998" x2="214.791" y2="122.998"/>
	<line fill="none" x1="246.834" y1="124.366" x2="253.809" y2="124.815"/>
	<line fill="none" stroke="#000000" stroke-miterlimit="10" x1="247.386" y1="123.912" x2="254.465" y2="123.912"/>
	<text transform="matrix(0.9031 0 0 1 186.0742 168.7646)" fill="#FFFFFF" font-family="'ArialMT'" font-size="3.2696">PG (37.5%)</text>
	<polyline fill="none" stroke="#000000" stroke-miterlimit="10" points="204.868,166.593 212.304,166.593 216.679,161.628 	"/>
	<polyline fill="none" stroke="#000000" stroke-miterlimit="10" points="251.611,165.686 246.688,165.686 242.97,161.872 	"/>
	<text transform="matrix(0.9031 0 0 1 204.8662 114.8408)" fill="#FFFFFF" font-family="'ArialMT'" font-size="3.2696">Breakdown of Movies by Rating</text>
	<text transform="matrix(0.6133 0 0 1 253.1636 166.9287)" fill="#FFFFFF" font-family="'ArialMT'" font-size="3.6519">PG-13 (40.625%)</text>
	<g>
		<rect x="5332.451" y="1047.742" fill="none" width="32.815" height="0.072"/>
		<rect x="5365.267" y="1047.742" fill="none" width="32.814" height="0.072"/>
		<rect x="5398.081" y="1047.742" fill="none" width="32.815" height="0.072"/>
		<polygon fill="#174884" points="5332.261,939.975 5332.451,942.906 5332.451,939.924 		"/>
		<path fill="#174884" d="M5365.459,937.621c0.078,0,0.154-0.072,0.27-0.072l-0.462-2.863L5365.459,937.621z"/>
		<polygon fill="#174884" points="5364.823,931.814 5364.807,931.822 5365.267,934.686 5365.075,931.75 		"/>
		<path fill="#174884" d="M5397.775,913.174c-0.041,0-0.078,0.076-0.156,0.076l0.462,2.861L5397.775,913.174z"/>
		<polygon fill="#174884" points="5398.081,916.111 5398.387,919.047 5398.449,919.027 5398.543,918.975 		"/>
		<path fill="#174884" d="M5430.665,901.209c-0.038,0-0.038,0-0.077,0l0.309,2.936L5430.665,901.209z"/>
		<polygon fill="#174884" points="5431.127,907.082 5431.2,907.059 5430.896,904.145 		"/>
		<text transform="matrix(0.5234 0 0 1 5318.2363 1091.3613)"><tspan x="0" y="0" fill="#010101" font-family="'ArialMT'" font-size="25.915">19</tspan><tspan x="27.166" y="0" fill="#010101" font-family="'ArialMT'" font-size="25.915">8</tspan><tspan x="40.827" y="0" fill="#010101" font-family="'ArialMT'" font-size="25.915">0</tspan></text>
		<text transform="matrix(0.5234 0 0 1 5351.0508 1091.3613)"><tspan x="0" y="0" fill="#010101" font-family="'ArialMT'" font-size="25.915">19</tspan><tspan x="27.166" y="0" fill="#010101" font-family="'ArialMT'" font-size="25.915">8</tspan><tspan x="40.828" y="0" fill="#010101" font-family="'ArialMT'" font-size="25.915">1</tspan></text>
		<text transform="matrix(0.5234 0 0 1 5383.8594 1091.3613)"><tspan x="0" y="0" fill="#010101" font-family="'ArialMT'" font-size="25.915">19</tspan><tspan x="27.166" y="0" fill="#010101" font-family="'ArialMT'" font-size="25.915">8</tspan><tspan x="40.828" y="0" fill="#010101" font-family="'ArialMT'" font-size="25.915">2</tspan></text>
		<text transform="matrix(0.5234 0 0 1 6171.5938 1091.3613)"><tspan x="0" y="0" fill="#010101" font-family="'ArialMT'" font-size="25.915">20</tspan><tspan x="27.166" y="0" fill="#010101" font-family="'ArialMT'" font-size="25.915">0</tspan><tspan x="40.828" y="0" fill="#010101" font-family="'ArialMT'" font-size="25.915">6</tspan></text>
		<text transform="matrix(0.5234 0 0 1 6204.4082 1091.3613)"><tspan x="0" y="0" fill="#010101" font-family="'ArialMT'" font-size="25.915">20</tspan><tspan x="27.166" y="0" fill="#010101" font-family="'ArialMT'" font-size="25.915">0</tspan><tspan x="40.827" y="0" fill="#010101" font-family="'ArialMT'" font-size="25.915">7</tspan></text>
		<text transform="matrix(0.5234 0 0 1 6237.2285 1091.3613)"><tspan x="0" y="0" fill="#010101" font-family="'ArialMT'" font-size="25.915">20</tspan><tspan x="27.166" y="0" fill="#010101" font-family="'ArialMT'" font-size="25.915">0</tspan><tspan x="40.827" y="0" fill="#010101" font-family="'ArialMT'" font-size="25.915">8</tspan></text>
		<text transform="matrix(0.5234 0 0 1 6270.0391 1091.3613)"><tspan x="0" y="0" fill="#010101" font-family="'ArialMT'" font-size="25.915">20</tspan><tspan x="27.167" y="0" fill="#010101" font-family="'ArialMT'" font-size="25.915">0</tspan><tspan x="40.828" y="0" fill="#010101" font-family="'ArialMT'" font-size="25.915">9</tspan></text>
		<text transform="matrix(0.5234 0 0 1 6302.8516 1091.3613)"><tspan x="0" y="0" fill="#010101" font-family="'ArialMT'" font-size="25.915">20</tspan><tspan x="27.166" y="0" fill="#010101" font-family="'ArialMT'" font-size="25.915">1</tspan><tspan x="40.828" y="0" fill="#010101" font-family="'ArialMT'" font-size="25.915">0</tspan></text>
		<text transform="matrix(0.5234 0 0 1 6335.707 1091.3613)"><tspan x="0" y="0" fill="#010101" font-family="'ArialMT'" font-size="25.915">20</tspan><tspan x="27.166" y="0" fill="#010101" font-family="'ArialMT'" font-size="25.915">1</tspan><tspan x="40.827" y="0" fill="#010101" font-family="'ArialMT'" font-size="25.915">1</tspan></text>
		<text transform="matrix(0.5234 0 0 1 5290.3027 1057.5879)"><tspan x="0" y="0" fill="#010101" font-family="'ArialMT'" font-size="25.915">vvv</tspan><tspan x="38.873" y="0" fill="#010101" font-family="'ArialMT'" font-size="25.915">$0</tspan></text>
		<text transform="matrix(0.5234 0 0 1 5264.9023 981.3047)"><tspan x="0" y="0" fill="#010101" font-family="'ArialMT'" font-size="25.915">$2</tspan><tspan x="27.166" y="0" fill="#010101" font-family="'ArialMT'" font-size="25.915">,</tspan><tspan x="34.937" y="0" fill="#010101" font-family="'ArialMT'" font-size="25.915">0</tspan><tspan x="48.52" y="0" fill="#010101" font-family="'ArialMT'" font-size="25.915">0</tspan><tspan x="62.182" y="0" fill="#010101" font-family="'ArialMT'" font-size="25.915">0</tspan></text>
		<text transform="matrix(0.5234 0 0 1 5264.9023 905.1016)"><tspan x="0" y="0" fill="#010101" font-family="'ArialMT'" font-size="25.915">$4</tspan><tspan x="27.166" y="0" fill="#010101" font-family="'ArialMT'" font-size="25.915">,</tspan><tspan x="34.937" y="0" fill="#010101" font-family="'ArialMT'" font-size="25.915">0</tspan><tspan x="48.52" y="0" fill="#010101" font-family="'ArialMT'" font-size="25.915">0</tspan><tspan x="62.182" y="0" fill="#010101" font-family="'ArialMT'" font-size="25.915">0</tspan></text>
		<text transform="matrix(0.5234 0 0 1 5264.9023 828.9043)"><tspan x="0" y="0" fill="#010101" font-family="'ArialMT'" font-size="25.915">$6</tspan><tspan x="27.166" y="0" fill="#010101" font-family="'ArialMT'" font-size="25.915">,</tspan><tspan x="34.937" y="0" fill="#010101" font-family="'ArialMT'" font-size="25.915">0</tspan><tspan x="48.52" y="0" fill="#010101" font-family="'ArialMT'" font-size="25.915">0</tspan><tspan x="62.182" y="0" fill="#010101" font-family="'ArialMT'" font-size="25.915">0</tspan></text>
		<text transform="matrix(0.5234 0 0 1 5264.9023 752.6406)"><tspan x="0" y="0" fill="#010101" font-family="'ArialMT'" font-size="25.915">$8</tspan><tspan x="27.166" y="0" fill="#010101" font-family="'ArialMT'" font-size="25.915">,</tspan><tspan x="34.937" y="0" fill="#010101" font-family="'ArialMT'" font-size="25.915">0</tspan><tspan x="48.52" y="0" fill="#010101" font-family="'ArialMT'" font-size="25.915">0</tspan><tspan x="62.182" y="0" fill="#010101" font-family="'ArialMT'" font-size="25.915">0</tspan></text>
		<text transform="matrix(0.5234 0 0 1 5257.7988 676.418)"><tspan x="0" y="0" fill="#010101" font-family="'ArialMT'" font-size="25.915">$1</tspan><tspan x="27.166" y="0" fill="#010101" font-family="'ArialMT'" font-size="25.915">0</tspan><tspan x="40.827" y="0" fill="#010101" font-family="'ArialMT'" font-size="25.915">,</tspan><tspan x="48.52" y="0" fill="#010101" font-family="'ArialMT'" font-size="25.915">0</tspan><tspan x="62.181" y="0" fill="#010101" font-family="'ArialMT'" font-size="25.915">00</tspan></text>
		<text transform="matrix(0.5234 0 0 1 5257.7988 600.2168)"><tspan x="0" y="0" fill="#010101" font-family="'ArialMT'" font-size="25.915">$1</tspan><tspan x="27.166" y="0" fill="#010101" font-family="'ArialMT'" font-size="25.915">2</tspan><tspan x="40.827" y="0" fill="#010101" font-family="'ArialMT'" font-size="25.915">,</tspan><tspan x="48.52" y="0" fill="#010101" font-family="'ArialMT'" font-size="25.915">0</tspan><tspan x="62.181" y="0" fill="#010101" font-family="'ArialMT'" font-size="25.915">00</tspan></text>
		<rect x="6284.258" y="1047.742" fill="none" width="32.814" height="0.072"/>
		<rect x="6317.072" y="1047.742" fill="none" width="32.854" height="0.072"/>
		<rect x="6185.814" y="1047.742" fill="none" width="32.816" height="0.072"/>
		<rect x="6251.445" y="1047.742" fill="none" width="32.813" height="0.072"/>
		<rect x="6218.631" y="1047.742" fill="none" stroke="#000000" stroke-miterlimit="10" width="32.814" height="0.072"/>
		<polygon fill="none" points="6316.877,647.926 6284.688,646.848 6267.082,666.582 6349.926,666.582 6349.926,659.898 
			6349.58,662.762 		"/>
		<path fill="#174884" d="M6186.162,699.615c0.039-0.072,0.039-0.072,0.078-0.072l-0.426-2.863L6186.162,699.615z"/>
		<polygon fill="#174884" points="6185.814,696.68 6185.475,693.771 6185.393,693.818 		"/>
		<path fill="#174884" d="M6218.669,676.416h-0.038c-0.154,0-0.271,0-0.426,0.074l0.426,2.865L6218.669,676.416z"/>
		<polygon fill="#174884" points="6218.631,679.355 6218.59,682.287 6218.891,682.299 6219.053,682.215 		"/>
		<path fill="#174884" d="M6251.404,683.607l0.041,0.078c0.268,0,0.535-0.15,0.768-0.441l-0.768-2.57L6251.404,683.607z"/>
		<polygon fill="#174884" points="6251.445,680.674 6251.482,677.738 6251.02,677.717 6250.674,678.107 		"/>
		<path fill="#174884" d="M6284.297,640.963c-0.039,0-0.039,0-0.039,0c-0.266,0-0.537,0.066-0.77,0.357l0.77,2.572L6284.297,640.963
			z"/>
		<polygon fill="#174884" points="6284.258,643.893 6284.219,646.828 6284.688,646.848 6285.027,646.463 		"/>
		<path fill="#174884" d="M6317.072,644.994l0.346-2.861c-0.113-0.074-0.191-0.074-0.309-0.074L6317.072,644.994z"/>
		<polygon fill="#174884" points="6349.926,659.898 6350.271,657.037 6349.926,656.877 		"/>
		<polygon fill="#009444" points="5364.823,931.814 5332.451,939.924 5332.451,942.906 5332.646,945.844 5365.459,937.621 
			5365.267,934.686 5364.807,931.822 		"/>
		<polygon fill="#009444" points="5398.081,916.111 5397.619,913.25 5364.823,931.814 5365.075,931.75 5365.267,934.686 
			5365.729,937.549 5398.449,919.027 5398.387,919.047 		"/>
		<polygon fill="#009444" points="5430.896,904.145 5430.588,901.209 5397.775,913.174 5398.081,916.111 5398.543,918.975 
			5398.449,919.027 5431.203,907.082 5431.2,907.059 5431.127,907.082 		"/>
		<polygon fill="#009444" points="6218.631,679.355 6218.205,676.49 6185.475,693.771 6185.814,696.68 6186.24,699.543 
			6218.891,682.299 6218.59,682.287 		"/>
		<polygon fill="#009444" points="6251.02,677.717 6218.669,676.416 6218.631,679.355 6219.053,682.215 6218.891,682.299 
			6251.404,683.607 6251.445,680.674 6250.674,678.107 		"/>
		<polygon fill="#009444" points="6284.258,643.893 6283.488,641.32 6260.961,666.582 6251.02,677.717 6251.482,677.738 
			6251.445,680.674 6252.213,683.244 6267.082,666.582 6284.688,646.848 6284.219,646.828 		"/>
		<polygon fill="#009444" points="6317.072,644.994 6317.109,642.059 6284.297,640.963 6284.258,643.893 6285.027,646.463 
			6284.688,646.848 6316.877,647.926 6316.728,647.857 		"/>
		<polygon fill="#009444" points="6317.418,642.133 6317.072,644.994 6317.033,647.93 6316.877,647.926 6349.58,662.762 
			6349.926,659.898 6349.926,656.877 		"/>
		<polygon fill="#174884" points="6316.877,647.926 6317.033,647.93 6317.072,644.994 6316.728,647.857 		"/>
		<g>
			<rect x="5237.891" y="448.578" fill="#FFFFFF" stroke="#000000" stroke-miterlimit="10" width="1174.707" height="705.689"/>
			<rect x="5430.896" y="1047.742" fill="none" width="32.814" height="0.072"/>
			<path fill="none" stroke="#000000" stroke-miterlimit="10" d="M5397.619,913.25c0.078,0,0.115-0.076,0.156-0.076l32.813-11.965
				c0.039,0,0.039,0,0.077,0l19.405-5.947h-117.619v44.662l32.372-8.109L5397.619,913.25z"/>
			<polygon fill="#174884" points="5463.711,894.088 5463.479,891.15 5450.07,895.262 5463.604,895.262 			"/>
			<path fill="#174884" d="M5463.979,891.15c-0.115,0-0.19,0-0.268,0c-0.078,0-0.154,0-0.231,0l0.231,2.938L5463.979,891.15z"/>
			<polygon fill="#174884" points="5463.803,895.262 5476.563,895.262 5463.979,891.15 5463.711,894.088 			"/>
			<polygon fill="#174884" points="5463.803,895.262 5463.604,895.262 5463.441,897.023 5463.682,897.105 5463.939,897.023 			"/>
			<polygon fill="#174884" points="5463.604,895.262 5463.803,895.262 5463.711,894.088 			"/>
			<text transform="matrix(0.5234 0 0 1 5416.6816 1091.3613)"><tspan x="0" y="0" fill="#010101" font-family="'ArialMT'" font-size="25.915">19</tspan><tspan x="27.166" y="0" fill="#010101" font-family="'ArialMT'" font-size="25.915">8</tspan><tspan x="40.828" y="0" fill="#010101" font-family="'ArialMT'" font-size="25.915">3</tspan></text>
			<text transform="matrix(0.5234 0 0 1 5449.4941 1091.3613)"><tspan x="0" y="0" fill="#010101" font-family="'ArialMT'" font-size="25.915">19</tspan><tspan x="27.166" y="0" fill="#010101" font-family="'ArialMT'" font-size="25.915">8</tspan><tspan x="40.827" y="0" fill="#010101" font-family="'ArialMT'" font-size="25.915">4</tspan></text>
			<text transform="matrix(0.5234 0 0 1 5482.3047 1091.3613)"><tspan x="0" y="0" fill="#010101" font-family="'ArialMT'" font-size="25.915">19</tspan><tspan x="27.166" y="0" fill="#010101" font-family="'ArialMT'" font-size="25.915">8</tspan><tspan x="40.827" y="0" fill="#010101" font-family="'ArialMT'" font-size="25.915">5</tspan></text>
			<text transform="matrix(0.5234 0 0 1 5515.1582 1091.3613)"><tspan x="0" y="0" fill="#010101" font-family="'ArialMT'" font-size="25.915">19</tspan><tspan x="27.167" y="0" fill="#010101" font-family="'ArialMT'" font-size="25.915">8</tspan><tspan x="40.828" y="0" fill="#010101" font-family="'ArialMT'" font-size="25.915">6</tspan></text>
			<text transform="matrix(0.5234 0 0 1 5547.9707 1091.3613)"><tspan x="0" y="0" fill="#010101" font-family="'ArialMT'" font-size="25.915">19</tspan><tspan x="27.166" y="0" fill="#010101" font-family="'ArialMT'" font-size="25.915">8</tspan><tspan x="40.828" y="0" fill="#010101" font-family="'ArialMT'" font-size="25.915">7</tspan></text>
			<text transform="matrix(0.5234 0 0 1 5580.791 1091.3613)"><tspan x="0" y="0" fill="#010101" font-family="'ArialMT'" font-size="25.915">19</tspan><tspan x="27.166" y="0" fill="#010101" font-family="'ArialMT'" font-size="25.915">8</tspan><tspan x="40.828" y="0" fill="#010101" font-family="'ArialMT'" font-size="25.915">8</tspan></text>
			<text transform="matrix(0.5234 0 0 1 5613.6016 1091.3613)"><tspan x="0" y="0" fill="#010101" font-family="'ArialMT'" font-size="25.915">19</tspan><tspan x="27.166" y="0" fill="#010101" font-family="'ArialMT'" font-size="25.915">8</tspan><tspan x="40.827" y="0" fill="#010101" font-family="'ArialMT'" font-size="25.915">9</tspan></text>
			<text transform="matrix(0.5234 0 0 1 5646.416 1091.3613)"><tspan x="0" y="0" fill="#010101" font-family="'ArialMT'" font-size="25.915">19</tspan><tspan x="27.166" y="0" fill="#010101" font-family="'ArialMT'" font-size="25.915">9</tspan><tspan x="40.828" y="0" fill="#010101" font-family="'ArialMT'" font-size="25.915">0</tspan></text>
			<text transform="matrix(0.5234 0 0 1 5679.2676 1091.3613)"><tspan x="0" y="0" fill="#010101" font-family="'ArialMT'" font-size="25.915">19</tspan><tspan x="27.166" y="0" fill="#010101" font-family="'ArialMT'" font-size="25.915">9</tspan><tspan x="40.828" y="0" fill="#010101" font-family="'ArialMT'" font-size="25.915">1</tspan></text>
			<text transform="matrix(0.5234 0 0 1 5712.0801 1091.3613)"><tspan x="0" y="0" fill="#010101" font-family="'ArialMT'" font-size="25.915">19</tspan><tspan x="27.166" y="0" fill="#010101" font-family="'ArialMT'" font-size="25.915">9</tspan><tspan x="40.827" y="0" fill="#010101" font-family="'ArialMT'" font-size="25.915">2</tspan></text>
			<text transform="matrix(0.5234 0 0 1 5744.9004 1091.3613)"><tspan x="0" y="0" fill="#010101" font-family="'ArialMT'" font-size="25.915">19</tspan><tspan x="27.166" y="0" fill="#010101" font-family="'ArialMT'" font-size="25.915">9</tspan><tspan x="40.827" y="0" fill="#010101" font-family="'ArialMT'" font-size="25.915">3</tspan></text>
			<text transform="matrix(0.5234 0 0 1 5777.7109 1091.3613)"><tspan x="0" y="0" fill="#010101" font-family="'ArialMT'" font-size="25.915">19</tspan><tspan x="27.166" y="0" fill="#010101" font-family="'ArialMT'" font-size="25.915">9</tspan><tspan x="40.827" y="0" fill="#010101" font-family="'ArialMT'" font-size="25.915">4</tspan></text>
			<text transform="matrix(0.5234 0 0 1 5810.5234 1091.3613)"><tspan x="0" y="0" fill="#010101" font-family="'ArialMT'" font-size="25.915">19</tspan><tspan x="27.166" y="0" fill="#010101" font-family="'ArialMT'" font-size="25.915">9</tspan><tspan x="40.828" y="0" fill="#010101" font-family="'ArialMT'" font-size="25.915">5</tspan></text>
			<text transform="matrix(0.5234 0 0 1 5843.377 1091.3613)"><tspan x="0" y="0" fill="#010101" font-family="'ArialMT'" font-size="25.915">19</tspan><tspan x="27.166" y="0" fill="#010101" font-family="'ArialMT'" font-size="25.915">9</tspan><tspan x="40.828" y="0" fill="#010101" font-family="'ArialMT'" font-size="25.915">6</tspan></text>
			<text transform="matrix(0.5234 0 0 1 5876.1914 1091.3613)"><tspan x="0" y="0" fill="#010101" font-family="'ArialMT'" font-size="25.915">19</tspan><tspan x="27.166" y="0" fill="#010101" font-family="'ArialMT'" font-size="25.915">9</tspan><tspan x="40.827" y="0" fill="#010101" font-family="'ArialMT'" font-size="25.915">7</tspan></text>
			<text transform="matrix(0.5234 0 0 1 5909.0098 1091.3613)"><tspan x="0" y="0" fill="#010101" font-family="'ArialMT'" font-size="25.915">19</tspan><tspan x="27.166" y="0" fill="#010101" font-family="'ArialMT'" font-size="25.915">9</tspan><tspan x="40.827" y="0" fill="#010101" font-family="'ArialMT'" font-size="25.915">8</tspan></text>
			<text transform="matrix(0.5234 0 0 1 5941.8223 1091.3613)"><tspan x="0" y="0" fill="#010101" font-family="'ArialMT'" font-size="25.915">19</tspan><tspan x="27.167" y="0" fill="#010101" font-family="'ArialMT'" font-size="25.915">9</tspan><tspan x="40.828" y="0" fill="#010101" font-family="'ArialMT'" font-size="25.915">9</tspan></text>
			<text transform="matrix(0.5234 0 0 1 5974.6328 1091.3613)"><tspan x="0" y="0" fill="#010101" font-family="'ArialMT'" font-size="25.915">20</tspan><tspan x="27.166" y="0" fill="#010101" font-family="'ArialMT'" font-size="25.915">0</tspan><tspan x="40.828" y="0" fill="#010101" font-family="'ArialMT'" font-size="25.915">0</tspan></text>
			<text transform="matrix(0.5234 0 0 1 6007.4863 1091.3613)"><tspan x="0" y="0" fill="#010101" font-family="'ArialMT'" font-size="25.915">20</tspan><tspan x="27.166" y="0" fill="#010101" font-family="'ArialMT'" font-size="25.915">0</tspan><tspan x="40.828" y="0" fill="#010101" font-family="'ArialMT'" font-size="25.915">1</tspan></text>
			<text transform="matrix(0.5234 0 0 1 6040.2988 1091.3613)"><tspan x="0" y="0" fill="#010101" font-family="'ArialMT'" font-size="25.915">20</tspan><tspan x="27.166" y="0" fill="#010101" font-family="'ArialMT'" font-size="25.915">0</tspan><tspan x="40.827" y="0" fill="#010101" font-family="'ArialMT'" font-size="25.915">2</tspan></text>
			<text transform="matrix(0.5234 0 0 1 6073.123 1091.3613)"><tspan x="0" y="0" fill="#010101" font-family="'ArialMT'" font-size="25.915">20</tspan><tspan x="27.166" y="0" fill="#010101" font-family="'ArialMT'" font-size="25.915">0</tspan><tspan x="40.828" y="0" fill="#010101" font-family="'ArialMT'" font-size="25.915">3</tspan></text>
			<text transform="matrix(0.5234 0 0 1 6105.9316 1091.3613)"><tspan x="0" y="0" fill="#010101" font-family="'ArialMT'" font-size="25.915">20</tspan><tspan x="27.166" y="0" fill="#010101" font-family="'ArialMT'" font-size="25.915">0</tspan><tspan x="40.828" y="0" fill="#010101" font-family="'ArialMT'" font-size="25.915">4</tspan></text>
			<text transform="matrix(0.5234 0 0 1 6138.7441 1091.3613)"><tspan x="0" y="0" fill="#010101" font-family="'ArialMT'" font-size="25.915">20</tspan><tspan x="27.166" y="0" fill="#010101" font-family="'ArialMT'" font-size="25.915">0</tspan><tspan x="40.828" y="0" fill="#010101" font-family="'ArialMT'" font-size="25.915">5</tspan></text>
			<rect x="6054.521" y="1047.742" fill="none" width="32.814" height="0.072"/>
			<rect x="5857.595" y="1047.742" fill="none" width="32.815" height="0.072"/>
			<rect x="6087.336" y="1047.742" fill="none" width="32.814" height="0.072"/>
			<rect x="6120.15" y="1047.742" fill="none" width="32.814" height="0.072"/>
			<rect x="5923.225" y="1047.742" fill="none" width="32.814" height="0.072"/>
			<rect x="5988.854" y="1047.742" fill="none" width="32.852" height="0.072"/>
			<rect x="5890.41" y="1047.742" fill="none" width="32.814" height="0.072"/>
			<rect x="5956.039" y="1047.742" fill="none" width="32.814" height="0.072"/>
			<rect x="6021.705" y="1047.742" fill="none" width="32.816" height="0.072"/>
			<polygon fill="none" points="5529.066,900.779 5539.092,895.262 5476.563,895.262 5496.764,901.861 			"/>
			<polygon fill="none" stroke="#000000" stroke-miterlimit="10" points="5332.451,1047.742 5365.267,1047.742 5398.081,1047.742 
				5430.896,1047.742 5463.711,1047.742 5496.526,1047.742 5529.375,1047.742 5562.189,1047.742 5595.006,1047.742 
				5627.82,1047.742 5660.635,1047.742 5693.486,1047.742 5726.301,1047.742 5759.115,1047.742 5791.93,1047.742 5824.744,1047.742 
				5857.595,1047.742 5890.41,1047.742 5923.225,1047.742 5956.039,1047.742 5988.854,1047.742 6021.705,1047.742 
				6054.521,1047.742 6087.336,1047.742 6120.15,1047.742 6152.965,1047.742 6185.814,1047.742 6218.631,1047.742 
				6251.445,1047.742 6284.258,1047.742 6317.072,1047.742 6349.926,1047.742 6349.926,971.467 5332.451,971.467 			"/>
			<rect x="6152.965" y="1047.742" fill="none" width="32.85" height="0.072"/>
			<rect x="5562.189" y="1047.742" fill="none" width="32.816" height="0.072"/>
			<rect x="5529.375" y="1047.742" fill="none" width="32.814" height="0.072"/>
			<rect x="5496.526" y="1047.742" fill="none" width="32.849" height="0.072"/>
			<rect x="5660.635" y="1047.742" fill="none" width="32.852" height="0.072"/>
			<rect x="5726.301" y="1047.742" fill="none" width="32.814" height="0.072"/>
			<rect x="5759.115" y="1047.742" fill="none" width="32.814" height="0.072"/>
			<rect x="5791.93" y="1047.742" fill="none" width="32.814" height="0.072"/>
			<rect x="5693.486" y="1047.742" fill="none" width="32.814" height="0.072"/>
			<rect x="5627.82" y="1047.742" fill="none" width="32.814" height="0.072"/>
			<polygon fill="none" points="5824.744,1047.742 5824.744,1047.814 5841.189,1047.814 5857.595,1047.814 5857.595,1047.742 			"/>
			<rect x="5595.006" y="1047.742" fill="none" width="32.814" height="0.072"/>
			<rect x="5463.711" y="1047.742" fill="none" width="32.815" height="0.072"/>
			<path fill="none" stroke="#000000" stroke-miterlimit="10" d="M5463.479,891.15c0.077,0,0.153,0,0.231,0c0.077,0,0.152,0,0.268,0
				l12.584,4.111h62.529l22.676-12.48c0.076-0.072,0.152-0.072,0.23-0.072l32.68-7.822l32.645-21.84
				c0.15-0.143,0.303-0.143,0.498-0.143l32.814,0.438c0.076,0,0.154,0,0.189,0l32.791,8.352l32.418-2.533l-0.002-0.018
				l32.813-10.791h0.043l32.813-9.248c0.037,0,0.076,0,0.154,0l32.611-3.727l32.711-15.865l-0.003-0.012l0.837-0.438h-525.559
				v76.199h117.619L5463.479,891.15z"/>
			<path fill="none" stroke="#000000" stroke-miterlimit="10" d="M5889.941,802.273l32.744-22.199c0.039,0,0.078-0.072,0.078-0.072
				l32.813-19.01c0.077,0,0.154-0.078,0.268-0.078l32.524-8.072l11.539-10.057h-667.457v76.277h525.559L5889.941,802.273z"/>
			<path fill="none" stroke="#000000" stroke-miterlimit="10" d="M6021.051,724.355l32.816-28.264
				c0.191-0.145,0.383-0.223,0.577-0.223l32.773-3.227v-0.006l32.813-5.428c0.041,0,0.079,0,0.119,0c0.191,0,0.307,0,0.498,0.146
				l32.33,20.324l32.49-13.939l0.006,0.031l32.73-17.281c0.154-0.074,0.271-0.074,0.426-0.074h0.038l32.351,1.301l9.941-11.135
				h-928.51v76.203h667.457L6021.051,724.355z"/>
			<path fill="none" stroke="#000000" stroke-miterlimit="10" d="M5529.8,906.572c-0.116,0.068-0.269,0.068-0.384,0.068
				l-32.854,1.105c-0.036,0-0.036,0.072-0.036,0.072c-0.079,0-0.155-0.072-0.269-0.072l-32.576-10.641l-32.481,9.953l0.003,0.023
				l-32.754,11.945l-32.721,18.521c-0.115,0-0.191,0.072-0.27,0.072l-32.813,8.223l-0.195-2.938v28.561h1017.475v-76.205h-799.582
				L5529.8,906.572z"/>
			<path fill="none" stroke="#000000" stroke-miterlimit="10" d="M6283.488,641.32c0.232-0.291,0.504-0.357,0.77-0.357
				c0,0,0,0,0.039,0l32.813,1.096c0.117,0,0.195,0,0.309,0.074l32.508,14.744v-66.431H5332.451v76.136h928.51L6283.488,641.32z"/>
			<path fill="none" stroke="#000000" stroke-miterlimit="10" d="M5858.021,825.225c-0.04,0-0.04,0-0.04,0l-32.856,15.93
				c-0.111,0.072-0.19,0.072-0.304,0.072l-32.663,3.732l0.003,0.014l-32.779,9.242l0.003,0.012l-32.813,10.789
				c-0.079,0-0.118,0-0.192,0l-32.814,2.57c-0.039,0-0.039,0.072-0.078,0.072c-0.078,0-0.115-0.072-0.191-0.072l-32.855-8.367
				v-0.006l-32.346-0.434l-32.59,21.801c-0.076,0.072-0.192,0.145-0.306,0.145l-32.644,7.813l-12.211,6.725h799.582v-76.199
				h-480.178L5858.021,825.225z"/>
			<path fill="none" stroke="#000000" stroke-miterlimit="10" d="M6252.213,683.244c-0.232,0.291-0.5,0.441-0.768,0.441
				l-0.041-0.078l-32.514-1.309l-32.65,17.244c-0.039,0-0.039,0-0.078,0.072l-32.854,14.094c-0.115,0-0.23,0.076-0.344,0.076
				c-0.191,0-0.311-0.076-0.502-0.221l-32.5-20.436l-32.514,5.385c0,0,0,0-0.037,0l-32.449,3.193l-32.605,28.08l-14.908,12.998
				h342.477v-76.203h-82.844L6252.213,683.244z"/>
			<path fill="none" stroke="#000000" stroke-miterlimit="10" d="M5989.508,758.418c-0.156,0.148-0.309,0.221-0.463,0.221
				l-32.567,8.09l-32.792,19.004l-0.004-0.023l-32.734,22.193c-0.035,0.072-0.076,0.072-0.113,0.072l-21.086,11.088h480.178v-76.277
				h-342.477L5989.508,758.418z"/>
			<path fill="#174884" d="M5496.258,907.746c0.113,0,0.189,0.072,0.269,0.072c0,0,0-0.072,0.036-0.072l-0.036-2.941
				L5496.258,907.746z"/>
			<polygon fill="#174884" points="5496.526,904.805 5496.793,901.869 5496.764,901.861 5496.484,901.869 			"/>
			<path fill="#174884" d="M5529.416,906.641c0.115,0,0.268,0,0.384-0.068l-0.425-2.867L5529.416,906.641z"/>
			<polygon fill="#174884" points="5529.375,903.705 5529.34,900.768 5529.066,900.779 5528.953,900.84 			"/>
			<path fill="#174884" d="M5561.998,882.709c-0.078,0-0.154,0-0.23,0.072l0.422,2.863L5561.998,882.709z"/>
			<polygon fill="#174884" points="5562.189,885.645 5562.385,888.578 5562.555,888.537 5562.614,888.51 			"/>
			<path fill="#174884" d="M5595.198,880.725c0.113,0,0.229-0.072,0.306-0.145l-0.498-2.791L5595.198,880.725z"/>
			<polygon fill="#174884" points="5595.006,877.789 5594.812,874.855 5594.678,874.887 5594.508,874.996 			"/>
			<path fill="#174884" d="M5627.82,852.904c-0.195,0-0.348,0-0.498,0.143l0.498,2.791V852.904z"/>
			<polygon fill="#174884" points="5627.82,855.838 5627.82,858.773 5628.094,858.779 5628.318,858.625 			"/>
			<path fill="#174884" d="M5660.824,853.342c-0.035,0-0.113,0-0.189,0v2.939L5660.824,853.342z"/>
			<polygon fill="#174884" points="5660.635,856.281 5660.439,859.213 5660.635,859.219 			"/>
			<path fill="#174884" d="M5693.295,867.586c0.076,0,0.113,0.072,0.191,0.072c0.039,0,0.039-0.072,0.078-0.072l-0.078-2.936
				L5693.295,867.586z"/>
			<polygon fill="#174884" points="5693.486,864.65 5693.678,861.711 5693.615,861.693 5693.408,861.711 			"/>
			<path fill="#174884" d="M5726.379,865.016c0.074,0,0.113,0,0.192,0l-0.271-2.938L5726.379,865.016z"/>
			<polygon fill="#174884" points="5726.225,859.143 5726.033,859.16 5726.301,862.078 			"/>
			<polygon fill="#174884" points="5758.887,848.352 5758.844,848.352 5759.115,851.291 			"/>
			<polygon fill="#174884" points="5759.344,854.227 5759.382,854.215 5759.115,851.291 			"/>
			<path fill="#174884" d="M5791.854,839.104c-0.078,0-0.117,0-0.154,0l0.23,2.932L5791.854,839.104z"/>
			<polygon fill="#174884" points="5792.008,844.973 5792.158,844.959 5791.93,842.035 			"/>
			<path fill="#174884" d="M5824.821,841.227c0.113,0,0.192,0,0.304-0.072l-0.381-2.865L5824.821,841.227z"/>
			<polygon fill="#174884" points="5824.744,838.289 5824.667,835.357 5824.465,835.377 5824.358,835.434 			"/>
			<path fill="#174884" d="M5857.981,825.225c0,0,0,0,0.04,0l-0.427-2.861L5857.981,825.225z"/>
			<polygon fill="#174884" points="5857.213,819.5 5857.176,819.512 5857.595,822.363 			"/>
			<path fill="#174884" d="M5890.834,807.975c0.037,0,0.078,0,0.113-0.072l-0.537-2.791L5890.834,807.975z"/>
			<polygon fill="#174884" points="5890.41,805.111 5889.986,802.25 5889.941,802.273 5889.873,802.316 			"/>
			<path fill="#174884" d="M5922.764,780.002c0,0-0.039,0.072-0.078,0.072l0.539,2.791L5922.764,780.002z"/>
			<polygon fill="#174884" points="5923.225,782.865 5923.682,785.709 5923.764,785.654 			"/>
			<path fill="#174884" d="M5955.845,760.914c-0.113,0-0.19,0.078-0.268,0.078l0.462,2.857L5955.845,760.914z"/>
			<polygon fill="#174884" points="5956.039,763.85 5956.23,766.789 5956.478,766.729 5956.5,766.717 			"/>
			<path fill="#174884" d="M5989.045,758.639c0.154,0,0.307-0.072,0.463-0.221l-0.654-2.715L5989.045,758.639z"/>
			<polygon fill="#174884" points="5988.854,755.703 5988.658,752.768 5988.369,752.842 5988.201,752.984 			"/>
			<path fill="#174884" d="M6054.444,695.869c-0.194,0-0.386,0.078-0.577,0.223l0.654,2.713L6054.444,695.869z"/>
			<polygon fill="#174884" points="6054.521,698.805 6054.596,701.744 6054.963,701.707 6055.176,701.523 			"/>
			<path fill="#174884" d="M6087.412,698.514c0.037,0,0.037,0,0.037,0l-0.113-2.936L6087.412,698.514z"/>
			<polygon fill="#174884" points="6087.26,692.637 6087.218,692.643 6087.336,695.578 			"/>
			<path fill="#174884" d="M6120.648,687.355c-0.191-0.146-0.307-0.146-0.498-0.146c-0.04,0-0.078,0-0.119,0l0.119,2.936
				L6120.648,687.355z"/>
			<polygon fill="#174884" points="6120.15,690.145 6119.65,692.934 6119.963,693.129 6120.264,693.084 			"/>
			<path fill="#174884" d="M6152.463,713.564c0.191,0.145,0.311,0.221,0.502,0.221c0.113,0,0.229-0.076,0.344-0.076l-0.344-2.936
				L6152.463,713.564z"/>
			<polygon fill="#174884" points="6152.965,710.773 6153.463,707.984 6152.979,707.68 6152.617,707.834 			"/>
			<polygon fill="#009444" points="5463.604,895.262 5450.07,895.262 5430.665,901.209 5430.896,904.145 5431.2,907.059 
				5463.682,897.105 5463.441,897.023 			"/>
			<polygon fill="#009444" points="5496.764,901.861 5476.563,895.262 5463.803,895.262 5463.939,897.023 5463.682,897.105 
				5496.258,907.746 5496.526,904.805 5496.484,901.869 			"/>
			<polygon fill="#009444" points="5529.066,900.779 5496.764,901.861 5496.793,901.869 5496.526,904.805 5496.563,907.746 
				5529.416,906.641 5529.375,903.705 5528.953,900.84 			"/>
			<polygon fill="#009444" points="5562.189,885.645 5561.768,882.781 5539.092,895.262 5529.066,900.779 5529.34,900.768 
				5529.375,903.705 5529.8,906.572 5550.344,895.262 5562.555,888.537 5562.385,888.578 			"/>
			<polygon fill="#009444" points="5594.678,874.887 5561.998,882.709 5562.189,885.645 5562.614,888.51 5562.555,888.537 
				5595.198,880.725 5595.006,877.789 5594.508,874.996 			"/>
			<polygon fill="#009444" points="5627.82,855.838 5627.322,853.047 5594.678,874.887 5594.812,874.855 5595.006,877.789 
				5595.504,880.58 5628.094,858.779 5627.82,858.773 			"/>
			<polygon fill="#009444" points="5660.635,853.342 5627.82,852.904 5627.82,855.838 5628.318,858.625 5628.094,858.779 
				5660.439,859.213 5660.635,856.281 			"/>
			<polygon fill="#009444" points="5693.615,861.693 5660.824,853.342 5660.635,856.281 5660.635,859.219 5660.439,859.213 
				5660.439,859.219 5693.295,867.586 5693.486,864.65 5693.408,861.711 			"/>
			<polygon fill="#009444" points="5693.615,861.693 5693.678,861.711 5693.486,864.65 5693.564,867.586 5726.379,865.016 
				5726.301,862.078 5726.033,859.16 			"/>
			<polygon fill="#009444" points="5759.115,851.291 5758.844,848.352 5726.031,859.143 5726.033,859.16 5726.225,859.143 
				5726.301,862.078 5726.571,865.016 5759.385,854.227 5759.382,854.215 5759.344,854.227 			"/>
			<polygon fill="#009444" points="5791.93,842.035 5791.699,839.104 5758.887,848.352 5759.115,851.291 5759.382,854.215 
				5792.161,844.973 5792.158,844.959 5792.008,844.973 			"/>
			<polygon fill="#009444" points="5824.465,835.377 5791.854,839.104 5791.93,842.035 5792.158,844.959 5824.821,841.227 
				5824.744,838.289 5824.358,835.434 			"/>
			<polygon fill="#009444" points="5824.465,835.377 5824.667,835.357 5824.744,838.289 5825.125,841.154 5857.981,825.225 
				5857.595,822.363 5857.176,819.512 			"/>
			<polygon fill="#009444" points="5889.941,802.273 5858.01,819.063 5857.173,819.5 5857.176,819.512 5857.213,819.5 
				5857.595,822.363 5858.021,825.225 5869.748,819.063 5890.834,807.975 5890.41,805.111 5889.873,802.316 			"/>
			<polygon fill="#009444" points="5922.686,780.074 5889.941,802.273 5889.986,802.25 5890.41,805.111 5890.947,807.902 
				5923.682,785.709 5923.225,782.865 			"/>
			<polygon fill="#009444" points="5956.039,763.85 5955.577,760.992 5922.764,780.002 5923.225,782.865 5923.764,785.654 
				5923.682,785.709 5923.686,785.732 5956.478,766.729 5956.23,766.789 			"/>
			<polygon fill="#009444" points="5988.369,752.842 5955.845,760.914 5956.039,763.85 5956.5,766.717 5956.478,766.729 
				5989.045,758.639 5988.854,755.703 5988.201,752.984 			"/>
			<polygon fill="#009444" points="6054.521,698.805 6053.867,696.092 6021.051,724.355 5999.908,742.785 5988.369,752.842 
				5988.658,752.768 5988.854,755.703 5989.508,758.418 6007.449,742.785 6022.357,729.787 6054.963,701.707 6054.596,701.744 			
				"/>
			<polygon fill="#009444" points="6054.444,695.869 6054.521,698.805 6055.176,701.523 6054.963,701.707 6087.412,698.514 
				6087.336,695.578 6087.218,692.643 			"/>
			<polygon fill="#009444" points="6120.15,690.145 6120.031,687.209 6087.218,692.637 6087.218,692.643 6087.26,692.637 
				6087.336,695.578 6087.449,698.514 6119.963,693.129 6119.65,692.934 			"/>
			<polygon fill="#009444" points="6152.979,707.68 6120.648,687.355 6120.15,690.145 6120.264,693.084 6119.963,693.129 
				6152.463,713.564 6152.965,710.773 6152.617,707.834 			"/>
			<polygon fill="#009444" points="6185.475,693.771 6185.469,693.74 6152.979,707.68 6153.463,707.984 6152.965,710.773 
				6153.309,713.709 6186.162,699.615 6185.814,696.68 6185.393,693.818 			"/>
			<text transform="matrix(0.5443 0 0 1 5625.625 547.0117)" font-family="'ArmyofDarkness'" font-size="89.0353">Yearly Box Office (in Millions)</text>
		</g>
	</g>
	<rect x="68.66" y="67.893" fill="none" width="53.23" height="49.398"/>
	<text transform="matrix(0.8226 0 0 1 68.6602 70.6045)"><tspan x="0" y="0" fill="#FFFFFF" font-family="'ArialMT'" font-size="3.7879">Top 5 Highest Grossing Movies</tspan><tspan x="0" y="3.031" fill="#FFFFFF" font-family="'ArialMT'" font-size="2.5253">The first bar shows how much the movie made in the year </tspan><tspan x="0" y="6.061" fill="#FFFFFF" font-family="'ArialMT'" font-size="2.5253">that is came out. The second bar is to show you what a </tspan><tspan x="0" y="9.091" fill="#FFFFFF" font-family="'ArialMT'" font-size="2.5253">movie would have made based on inflation.  This is done </tspan><tspan x="0" y="12.122" fill="#FFFFFF" font-family="'ArialMT'" font-size="2.5253">by getting how many tickets the movie origially sold, and </tspan><tspan x="0" y="15.152" fill="#FFFFFF" font-family="'ArialMT'" font-size="2.5253">base the ticket price on how much a movie ticket is today. </tspan><tspan x="0" y="18.182" fill="#FFFFFF" font-family="'ArialMT'" font-size="2.5253">(* = based on 6/26/2012)</tspan></text>
	<text transform="matrix(0.8226 0 0 1 67.2422 165.71)" fill="#D2E06C" font-family="'MyriadPro-Regular'" font-size="13.8139">#5</text>
	<text transform="matrix(0.6211 0 0 1 90.7285 164.3994)" fill="#DF76AF" font-family="'MyriadPro-Regular'" font-size="14.8701">#4</text>
	<text transform="matrix(0.6211 0 0 1 113.665 164.3994)" fill="#F2E52E" font-family="'MyriadPro-Regular'" font-size="14.8701">#3 </text>
	<text transform="matrix(0.6211 0 0 1 164.1006 165.4443)" fill="#F19DC3" font-family="'MyriadPro-Regular'" font-size="14.8701">#1</text>
	<text transform="matrix(0.6211 0 0 1 140.9473 165.4443)" fill="#4DC8F0" font-family="'MyriadPro-Regular'" font-size="14.8701">#2</text>
	<rect x="83.369" y="118.915" fill="#D2E06C" width="3.607" height="47.882"/>
	<rect x="105.381" y="97.595" fill="#DF76AF" width="3.607" height="69.694"/>
	<rect x="130.641" y="94.733" fill="#F2E52E" width="3.608" height="72.258"/>
	<rect x="158.354" y="67.134" fill="#4DC8F0" width="3.608" height="99.844"/>
	<rect x="180.078" y="62.673" fill="#F19DC3" width="3.606" height="104.406"/>
	<rect x="79.761" y="125.486" fill="#50662F" width="3.608" height="41.311"/>
	<rect x="101.772" y="118.074" fill="#662D56" width="3.608" height="49.564"/>
	<rect x="127.033" y="111.202" fill="#666229" width="3.608" height="55.79"/>
	<rect x="154.746" y="105.768" fill="#205566" width="3.607" height="61.21"/>
	<rect x="176.47" y="78.73" fill="#664352" width="3.607" height="88.349"/>
	<text transform="matrix(0 -1.61 1 0 85.7671 166.8154)" font-family="'MyriadPro-Regular'" font-size="1.7317">The Phantom Menace ($715.2 million)</text>
	<text transform="matrix(0 -1.61 1 0 82.3032 166.3516)" fill="#FFFFFF" font-family="'MyriadPro-Regular'" font-size="1.7317">The  Phantom Menace ($533.3 million)</text>
	<text transform="matrix(0 -1.61 1 0 107.7378 166.8154)" font-family="'MyriadPro-Regular'" font-size="1.7317">Return of the Jedi ($744.9 million)</text>
	<text transform="matrix(0 -1.61 1 0 104.2739 166.8154)" fill="#FFFFFF" font-family="'MyriadPro-Regular'" font-size="1.7317">The Dark Knight ($533.3 million)</text>
	<text transform="matrix(0 -1.61 1 0 133.063 166.8154)" font-family="'MyriadPro-Regular'" font-size="1.7317">Empire Strikes Back ($777.5 million)</text>
	<text transform="matrix(0 -1.61 1 0 129.5991 166.8154)"><tspan x="0" y="0" fill="#FFFFFF" font-family="'MyriadPro-Regular'" font-size="1.7317">The Avengers</tspan><tspan x="9.865" y="0" fill="#EF4357" font-family="'MyriadPro-Regular'" font-size="1.7317">* </tspan><tspan x="10.951" y="0" fill="#FFFFFF" font-family="'MyriadPro-Regular'" font-size="1.7317">($600.3 milliion)</tspan></text>
	<text transform="matrix(0 -1.61 1 0 160.6616 166.9248)" font-family="'MyriadPro-Regular'" font-size="1.7317">Titanic ($1074.3 million)</text>
	<text transform="matrix(0 -1.61 1 0 157.1968 167.0479)" fill="#FFFFFF" font-family="'MyriadPro-Regular'" font-size="1.7317">Titanic ($658.6 million)</text>
	<text transform="matrix(0 -1.61 1 0 182.5229 166.8154)" font-family="'MyriadPro-Regular'" font-size="1.7317">E.T.  ($ 1123.4 million)</text>
	<text transform="matrix(0 -1.61 1 0 179.0601 166.8154)" fill="#FFFFFF" font-family="'MyriadPro-Regular'" font-size="1.7317">Avatar ($760.5 million)</text>
	<g>
		<text transform="matrix(0.9336 0 0 1 231.8428 83.7432)" fill="#FFFFFF" font-family="'ArialMT'" font-size="6.7735">3.4%</text>
		<text transform="matrix(0.9336 0 0 1 231.8428 91.2285)" fill="#FFFFFF" font-family="'ArialMT'" font-size="6.7735">34%</text>
		<text transform="matrix(0.9336 0 0 1 229.0391 98.8594)" fill="#FFFFFF" font-family="'ArialMT'" font-size="6.7735">3.10</text>
		<text transform="matrix(0.9336 0 0 1 229.0391 107.7432)" fill="#FFFFFF" font-family="'ArialMT'" font-size="6.7735">7.25</text>
		<text transform="matrix(0.9336 0 0 1 247.7393 81.7207)" fill="#FFFFFF" font-family="'ArialMT'" font-size="1.9743">Average Ticket Price increase per year</text>
		<text transform="matrix(0.9336 0 0 1 247.7363 89.2412)" fill="#FFFFFF" font-family="'ArialMT'" font-size="1.9743">Ticket prices are this much more then 1980</text>
		<text transform="matrix(0.9336 0 0 1 247.7393 95.9375)"><tspan x="0" y="0" fill="#FFFFFF" font-family="'ArialMT'" font-size="1.9743">Amount min wage was in 1980. You could </tspan><tspan x="0" y="2.369" fill="#FFFFFF" font-family="'ArialMT'" font-size="1.9743">buy 1 movie ticket by working 1 hour.</tspan></text>
		<text transform="matrix(0.9336 0 0 1 247.7393 103.8066)"><tspan x="0" y="0" fill="#FFFFFF" font-family="'ArialMT'" font-size="1.9743">Amount min wage was in 2010. You could</tspan><tspan x="0" y="2.369" fill="#FFFFFF" font-family="'ArialMT'" font-size="1.9743">barely buy 1 movie ticket  by working 1 hour</tspan></text>
	</g>
	<path fill="#EE2A69" d="M233.162,59.584h3.921c0-0.232,0.271-0.42,0.607-0.423v-1.322c-0.194,0-0.352-0.169-0.352-0.376
		c0-0.208,0.157-0.376,0.352-0.376v-1.323c-0.336-0.002-0.607-0.19-0.607-0.423h-3.921c0,0.234-0.275,0.423-0.614,0.423
		c-0.011,0-0.022,0-0.034,0v1.323c0.194,0,0.352,0.168,0.352,0.376c0,0.208-0.158,0.376-0.352,0.376v1.323
		c0.012-0.001,0.023-0.001,0.034-0.001C232.887,59.162,233.162,59.351,233.162,59.584z"/>
	<path fill="#EE2A69" d="M239.662,59.584h3.921c0-0.232,0.271-0.42,0.607-0.423v-1.322c-0.194,0-0.352-0.169-0.352-0.376
		c0-0.208,0.158-0.376,0.352-0.376v-1.323c-0.336-0.002-0.607-0.19-0.607-0.423h-3.921c0,0.234-0.275,0.423-0.614,0.423
		c-0.012,0-0.023,0-0.034,0v1.323c0.194,0,0.351,0.168,0.351,0.376c0,0.208-0.157,0.376-0.351,0.376v1.323
		c0.011-0.001,0.022-0.001,0.034-0.001C239.387,59.162,239.662,59.351,239.662,59.584z"/>
	<path fill="#EE2A69" d="M233.162,65.134h3.921c0-0.232,0.271-0.42,0.607-0.423v-1.322c-0.194,0-0.352-0.168-0.352-0.376
		c0-0.208,0.157-0.377,0.352-0.377v-1.323c-0.336-0.002-0.607-0.191-0.607-0.423h-3.921c0,0.234-0.275,0.423-0.614,0.423
		c-0.011,0-0.022,0-0.034,0v1.323c0.194,0,0.352,0.168,0.352,0.377c0,0.208-0.158,0.376-0.352,0.376v1.323
		c0.012,0,0.023-0.001,0.034-0.001C232.887,64.711,233.162,64.9,233.162,65.134z"/>
	<path fill="#EE2A69" d="M239.662,65.134h3.921c0-0.232,0.271-0.42,0.607-0.423v-1.322c-0.194,0-0.352-0.168-0.352-0.376
		c0-0.208,0.158-0.377,0.352-0.377v-1.323c-0.336-0.002-0.607-0.191-0.607-0.423h-3.921c0,0.234-0.275,0.423-0.614,0.423
		c-0.012,0-0.023,0-0.034,0v1.323c0.194,0,0.351,0.168,0.351,0.377c0,0.208-0.157,0.376-0.351,0.376v1.323
		c0.011,0,0.022-0.001,0.034-0.001C239.387,64.711,239.662,64.9,239.662,65.134z"/>
	<path fill="#EE2A69" d="M246.163,65.134h3.921c0-0.232,0.271-0.42,0.608-0.423v-1.322c-0.195,0-0.352-0.168-0.352-0.376
		c0-0.208,0.157-0.377,0.352-0.377v-1.323c-0.336-0.002-0.608-0.191-0.608-0.423h-3.921c0,0.234-0.275,0.423-0.614,0.423
		c-0.011,0-0.022,0-0.034,0v1.323c0.194,0,0.352,0.168,0.352,0.377c0,0.208-0.158,0.376-0.352,0.376v1.323
		c0.011,0,0.022-0.001,0.034-0.001C245.887,64.711,246.163,64.9,246.163,65.134z"/>
	<path fill="#EE2A69" d="M252.663,65.134h3.921c0-0.232,0.271-0.42,0.607-0.423v-1.322c-0.194,0-0.352-0.168-0.352-0.376
		c0-0.208,0.158-0.377,0.352-0.377v-1.323c-0.336-0.002-0.607-0.191-0.607-0.423h-3.921c0,0.234-0.275,0.423-0.615,0.423
		c-0.011,0-0.022,0-0.033,0v1.323c0.194,0,0.351,0.168,0.351,0.377c0,0.208-0.157,0.376-0.351,0.376v1.323
		c0.011,0,0.022-0.001,0.033-0.001C252.388,64.711,252.663,64.9,252.663,65.134z"/>
	<path fill="#EE2A69" d="M233.162,70.292h3.921c0-0.232,0.271-0.42,0.607-0.423v-1.322c-0.194,0-0.352-0.169-0.352-0.377
		c0-0.208,0.157-0.377,0.352-0.377v-1.322c-0.336-0.002-0.607-0.191-0.607-0.423h-3.921c0,0.234-0.275,0.423-0.614,0.423
		c-0.011,0-0.022,0-0.034,0v1.323c0.194,0,0.352,0.168,0.352,0.377c0,0.208-0.158,0.377-0.352,0.377v1.322c0.012,0,0.023,0,0.034,0
		C232.887,69.869,233.162,70.058,233.162,70.292z"/>
	<path fill="#EE2A69" d="M239.662,70.292h3.921c0-0.232,0.271-0.42,0.607-0.423v-1.322c-0.194,0-0.352-0.169-0.352-0.377
		c0-0.208,0.158-0.377,0.352-0.377v-1.322c-0.336-0.002-0.607-0.191-0.607-0.423h-3.921c0,0.234-0.275,0.423-0.614,0.423
		c-0.012,0-0.023,0-0.034,0v1.323c0.194,0,0.351,0.168,0.351,0.377c0,0.208-0.157,0.377-0.351,0.377v1.322c0.011,0,0.022,0,0.034,0
		C239.387,69.869,239.662,70.058,239.662,70.292z"/>
	<path fill="#EE2A69" d="M246.163,70.292h3.921c0-0.232,0.271-0.42,0.608-0.423v-1.322c-0.195,0-0.352-0.169-0.352-0.377
		c0-0.208,0.157-0.377,0.352-0.377v-1.322c-0.336-0.002-0.608-0.191-0.608-0.423h-3.921c0,0.234-0.275,0.423-0.614,0.423
		c-0.011,0-0.022,0-0.034,0v1.323c0.194,0,0.352,0.168,0.352,0.377c0,0.208-0.158,0.377-0.352,0.377v1.322c0.011,0,0.022,0,0.034,0
		C245.887,69.869,246.163,70.058,246.163,70.292z"/>
	<path fill="#EE2A69" d="M252.663,70.292h3.921c0-0.232,0.271-0.42,0.607-0.423v-1.322c-0.194,0-0.352-0.169-0.352-0.377
		c0-0.208,0.158-0.377,0.352-0.377v-1.322c-0.336-0.002-0.607-0.191-0.607-0.423h-3.921c0,0.234-0.275,0.423-0.615,0.423
		c-0.011,0-0.022,0-0.033,0v1.323c0.194,0,0.351,0.168,0.351,0.377c0,0.208-0.157,0.377-0.351,0.377v1.322c0.011,0,0.022,0,0.033,0
		C252.388,69.869,252.663,70.058,252.663,70.292z"/>
	<path fill="#EE2A69" d="M265.869,75.552h3.921c0-0.232,0.271-0.42,0.607-0.423v-1.322c-0.194,0-0.352-0.168-0.352-0.377
		c0-0.208,0.158-0.377,0.352-0.377v-1.322c-0.336-0.002-0.607-0.191-0.607-0.423h-3.921c0,0.233-0.274,0.423-0.614,0.423
		c-0.011,0-0.023,0-0.034,0v1.322c0.194,0,0.352,0.169,0.352,0.377c0,0.208-0.158,0.377-0.352,0.377v1.323c0.011,0,0.022,0,0.034,0
		C265.595,75.129,265.869,75.318,265.869,75.552z"/>
	<path fill="#EE2A69" d="M272.37,75.552h3.921c0-0.232,0.271-0.42,0.608-0.423v-1.322c-0.194,0-0.352-0.168-0.352-0.377
		c0-0.208,0.158-0.377,0.352-0.377v-1.322c-0.336-0.002-0.608-0.191-0.608-0.423h-3.921c0,0.233-0.275,0.423-0.614,0.423
		c-0.011,0-0.022,0-0.034,0v1.322c0.194,0,0.352,0.169,0.352,0.377c0,0.208-0.158,0.377-0.352,0.377v1.323c0.011,0,0.022,0,0.034,0
		C272.094,75.129,272.37,75.318,272.37,75.552z"/>
	<path fill="#EE2A69" d="M259.266,70.292h3.921c0-0.232,0.271-0.42,0.607-0.423v-1.322c-0.195,0-0.352-0.169-0.352-0.377
		c0-0.208,0.157-0.377,0.352-0.377v-1.322c-0.336-0.002-0.607-0.191-0.607-0.423h-3.921c0,0.234-0.274,0.423-0.614,0.423
		c-0.011,0-0.023,0-0.034,0v1.323c0.194,0,0.352,0.168,0.352,0.377c0,0.208-0.157,0.377-0.352,0.377v1.322c0.011,0,0.022,0,0.034,0
		C258.991,69.869,259.266,70.058,259.266,70.292z"/>
	<path fill="#EE2A69" d="M233.162,75.321h3.921c0-0.232,0.271-0.421,0.607-0.423v-1.322c-0.194,0-0.352-0.169-0.352-0.376
		c0-0.208,0.157-0.377,0.352-0.377V71.5c-0.336-0.003-0.607-0.191-0.607-0.424h-3.921c0,0.234-0.275,0.424-0.614,0.424
		c-0.011,0-0.022-0.001-0.034-0.001v1.323c0.194,0,0.352,0.168,0.352,0.377c0,0.208-0.158,0.376-0.352,0.376v1.323
		c0.012,0,0.023,0,0.034,0C232.887,74.897,233.162,75.086,233.162,75.321z"/>
	<path fill="#EE2A69" d="M239.662,75.321h3.921c0-0.232,0.271-0.421,0.607-0.423v-1.322c-0.194,0-0.352-0.169-0.352-0.376
		c0-0.208,0.158-0.377,0.352-0.377V71.5c-0.336-0.003-0.607-0.191-0.607-0.424h-3.921c0,0.234-0.275,0.424-0.614,0.424
		c-0.012,0-0.023-0.001-0.034-0.001v1.323c0.194,0,0.351,0.168,0.351,0.377c0,0.208-0.157,0.376-0.351,0.376v1.323
		c0.011,0,0.022,0,0.034,0C239.387,74.897,239.662,75.086,239.662,75.321z"/>
	<path fill="#EE2A69" d="M246.163,75.321h3.921c0-0.232,0.271-0.421,0.608-0.423v-1.322c-0.195,0-0.352-0.169-0.352-0.376
		c0-0.208,0.157-0.377,0.352-0.377V71.5c-0.336-0.003-0.608-0.191-0.608-0.424h-3.921c0,0.234-0.275,0.424-0.614,0.424
		c-0.011,0-0.022-0.001-0.034-0.001v1.323c0.194,0,0.352,0.168,0.352,0.377c0,0.208-0.158,0.376-0.352,0.376v1.323
		c0.011,0,0.022,0,0.034,0C245.887,74.897,246.163,75.086,246.163,75.321z"/>
	<path fill="#EE2A69" d="M252.663,75.321h3.921c0-0.232,0.271-0.421,0.607-0.423v-1.322c-0.194,0-0.352-0.169-0.352-0.376
		c0-0.208,0.158-0.377,0.352-0.377V71.5c-0.336-0.003-0.607-0.191-0.607-0.424h-3.921c0,0.234-0.275,0.424-0.615,0.424
		c-0.011,0-0.022-0.001-0.033-0.001v1.323c0.194,0,0.351,0.168,0.351,0.377c0,0.208-0.157,0.376-0.351,0.376v1.323
		c0.011,0,0.022,0,0.033,0C252.388,74.897,252.663,75.086,252.663,75.321z"/>
	<path fill="#EE2A69" d="M259.266,75.321h3.921c0-0.232,0.271-0.421,0.607-0.423v-1.322c-0.195,0-0.352-0.169-0.352-0.376
		c0-0.208,0.157-0.377,0.352-0.377V71.5c-0.336-0.003-0.607-0.191-0.607-0.424h-3.921c0,0.234-0.274,0.424-0.614,0.424
		c-0.011,0-0.023-0.001-0.034-0.001v1.323c0.194,0,0.352,0.168,0.352,0.377c0,0.208-0.157,0.376-0.352,0.376v1.323
		c0.011,0,0.022,0,0.034,0C258.991,74.897,259.266,75.086,259.266,75.321z"/>
	<text transform="matrix(0.9336 0 0 1 251.8262 57.9502)" fill="#FFFFFF" font-family="'ArialMT'" font-size="2.6525">$2.69</text>
	<text transform="matrix(0.9336 0 0 1 261.2061 64.084)" fill="#FFFFFF" font-family="'ArialMT'" font-size="2.7301">$4.23</text>
	<text transform="matrix(0.9336 0 0 1 268.6348 68.5879)" fill="#FFFFFF" font-family="'ArialMT'" font-size="2.7301">$5.39</text>
	<text transform="matrix(0.9336 0 0 1 284.3691 73.5195)" fill="#FFFFFF" font-family="'ArialMT'" font-size="2.7301">$7.89</text>
	<path fill="#EE2A69" d="M248.612,58.026c0.093-0.248,0.145-0.371,0.171-0.431v-0.132c0-0.231,0-0.432-0.206-0.929
		c-0.206-0.498-0.155-0.608,0-1.193h-2.414c0,0.234-0.275,0.423-0.614,0.423c-0.011,0-0.022,0-0.034,0v1.323
		c0.194,0,0.352,0.168,0.352,0.376c0,0.208-0.158,0.376-0.352,0.376v1.323c0.011-0.001,0.022-0.001,0.034-0.001
		c0.339,0,0.614,0.189,0.614,0.423h2.462C248.62,59.209,248.319,58.799,248.612,58.026z"/>
	<path fill="#EE2A69" d="M259.771,63.828c0-0.442,0,0,0.31-0.552v-0.189c-0.042,0.008-0.087-0.005-0.118-0.073
		c-0.118-0.264,0.118-0.29-0.204-0.732c-0.321-0.442,0.115-0.497,0.012-0.651c-0.063-0.094,0.14-0.345,0.31-0.529v-0.21h-0.815
		c0,0.234-0.274,0.423-0.614,0.423c-0.011,0-0.023,0-0.034,0v1.323c0.194,0,0.352,0.168,0.352,0.377
		c0,0.208-0.157,0.376-0.352,0.376v1.323c0.011,0,0.022-0.001,0.034-0.001c0.339,0,0.614,0.189,0.614,0.423h0.815l-0.118-0.367
		C259.963,64.767,259.771,64.27,259.771,63.828z"/>
	<path fill="#EE2A69" d="M267.096,69.078c-0.138-0.885-0.153-0.774-0.102-1.216c0.051-0.442-0.104-0.497,0-0.702
		c0.071-0.142,0.159-0.751,0.207-1.112h-1.332c0,0.234-0.274,0.423-0.614,0.423c-0.011,0-0.023,0-0.034,0v1.323
		c0.194,0,0.352,0.168,0.352,0.377c0,0.208-0.158,0.377-0.352,0.377v1.322c0.011,0,0.022,0,0.034,0c0.339,0,0.614,0.189,0.614,0.423
		h1.227C267.301,69.571,267.234,69.962,267.096,69.078z"/>
	<path fill="#EE2A69" d="M282.496,73.199c0.181-0.245,0-0.508,0-0.508s-0.026-0.462,0-0.739c0.025-0.276-0.593-0.598-0.593-0.598
		l0.051-0.045h-3.084c0,0.233-0.275,0.423-0.615,0.423c-0.011,0-0.022,0-0.033,0v1.322c0.195,0,0.352,0.169,0.352,0.377
		c0,0.208-0.157,0.377-0.352,0.377v1.323c0.011,0,0.022,0,0.033,0c0.34,0,0.615,0.189,0.615,0.423h3.911v-0.231
		c0-0.232-0.62-0.993-0.62-1.203C282.161,73.91,282.315,73.443,282.496,73.199z"/>
	<path fill="#EE2A69" d="M234.376,52.933h1.86c0-0.11,0.129-0.199,0.289-0.2v-0.627c-0.093,0-0.168-0.08-0.168-0.179
		c0-0.099,0.075-0.179,0.168-0.179V51.12c-0.16-0.001-0.289-0.091-0.289-0.201h-1.86c0,0.111-0.13,0.201-0.292,0.201
		c-0.006,0-0.011,0-0.016,0v0.627c0.092,0,0.167,0.08,0.167,0.179c0,0.099-0.075,0.179-0.167,0.179v0.627c0.005,0,0.01,0,0.016,0
		C234.246,52.732,234.376,52.822,234.376,52.933z"/>
	<g>
		<text transform="matrix(0.9336 0 0 1 237.9531 52.168)" fill="#FFFFFF" font-family="'ArialMT'" font-size="2.1239">= $1.00</text>
	</g>
	<g>
		<text transform="matrix(0.9336 0 0 1 220.4951 57.9502)" fill="#FFFFFF" font-family="'ArialMT'" font-size="2.6525">1980</text>
	</g>
	<g>
		<text transform="matrix(0.9336 0 0 1 220.4951 64.084)" fill="#FFFFFF" font-family="'ArialMT'" font-size="2.6525">1990</text>
	</g>
	<g>
		<text transform="matrix(0.9336 0 0 1 220.4951 68.5879)" fill="#FFFFFF" font-family="'ArialMT'" font-size="2.6525">2000</text>
	</g>
	<g>
		<text transform="matrix(0.9336 0 0 1 220.4951 73.5195)" fill="#FFFFFF" font-family="'ArialMT'" font-size="2.6525">2010</text>
	</g>
	<text transform="matrix(0.9547 0 0 1 175.8809 196.498)" font-family="'CooperBlackStd'" font-size="6.3454">Sources: Boxofficemojo.com</text>
	<path fill="none" stroke="#000000" stroke-miterlimit="10" d="M300.71,147.925"/>
	<path fill="none" stroke="#000000" stroke-miterlimit="10" d="M281.651,178.698"/>
	<path fill="none" stroke="#000000" stroke-miterlimit="10" d="M281.651,111.661"/>
	<g opacity="0.76">
		<path fill="#9B9B9B" d="M232.287,128.669c-9.663,0-17.496,7.834-17.496,17.496c0,9.663,7.833,17.497,17.496,17.497
			c9.663,0,17.496-7.834,17.496-17.497C249.783,136.503,241.95,128.669,232.287,128.669z M240.397,134.507
			c2.151,0,3.894,1.743,3.894,3.893c0,2.15-1.743,3.894-3.894,3.894c-2.15,0-3.893-1.744-3.893-3.894
			C236.504,136.25,238.247,134.507,240.397,134.507z M227.309,131.679c1.862-1.076,4.244-0.441,5.32,1.421
			c1.077,1.861,0.439,4.243-1.422,5.319c-1.861,1.077-4.243,0.44-5.319-1.422C224.812,135.136,225.448,132.754,227.309,131.679z
			 M218.073,144.862c-1.076-1.862-0.439-4.243,1.421-5.319c1.862-1.076,4.244-0.439,5.32,1.421c1.076,1.861,0.439,4.243-1.422,5.32
			C221.53,147.36,219.148,146.724,218.073,144.862z M227.946,156.082c-0.946,1.93-3.279,2.728-5.209,1.782
			c-1.932-0.946-2.73-3.278-1.784-5.208c0.946-1.932,3.279-2.729,5.21-1.784C228.094,151.818,228.892,154.15,227.946,156.082z
			 M227.375,146.165c0-2.521,2.043-4.564,4.565-4.564c2.521,0,4.565,2.044,4.565,4.564c0,2.521-2.044,4.565-4.565,4.565
			C229.418,150.73,227.375,148.686,227.375,146.165z M238.831,158.189c-0.947,1.931-3.279,2.729-5.21,1.782
			c-1.931-0.945-2.729-3.278-1.783-5.209c0.946-1.93,3.278-2.729,5.209-1.782C238.979,153.924,239.776,156.257,238.831,158.189z
			 M243.294,152.995c-2.15,0-3.893-1.743-3.893-3.893c0-2.15,1.743-3.893,3.893-3.893c2.15,0,3.894,1.743,3.894,3.893
			C247.188,151.252,245.444,152.995,243.294,152.995z"/>
		<path d="M236.504,146.165c0-2.521-2.044-4.564-4.565-4.564c-2.521,0-4.565,2.044-4.565,4.564c0,2.521,2.043,4.565,4.565,4.565
			C234.46,150.73,236.504,148.686,236.504,146.165z M234.662,145.122c0.288,0,0.521,0.234,0.521,0.522
			c0,0.288-0.233,0.521-0.521,0.521c-0.288,0-0.521-0.233-0.521-0.521C234.141,145.356,234.375,145.122,234.662,145.122z
			 M234.141,147.382c0.362,0,0.656,0.292,0.656,0.656c0,0.362-0.294,0.656-0.656,0.656c-0.363,0-0.657-0.294-0.657-0.656
			C233.484,147.674,233.778,147.382,234.141,147.382z M232.982,143.21c0.32,0,0.579,0.312,0.579,0.695
			c0,0.383-0.259,0.695-0.579,0.695c-0.32,0-0.58-0.312-0.58-0.695C232.403,143.522,232.662,143.21,232.982,143.21z
			 M229.912,147.561c-0.416,0-0.753-0.338-0.753-0.754s0.338-0.752,0.753-0.752c0.417,0,0.753,0.337,0.753,0.752
			S230.328,147.561,229.912,147.561z M230.144,144.601c0-0.288,0.233-0.521,0.521-0.521c0.288,0,0.521,0.233,0.521,0.521
			c0,0.288-0.233,0.521-0.521,0.521C230.377,145.122,230.144,144.889,230.144,144.601z M230.991,148.693
			c0-0.396,0.321-0.715,0.716-0.715c0.396,0,0.716,0.32,0.716,0.715s-0.321,0.716-0.716,0.716
			C231.313,149.409,230.991,149.089,230.991,148.693z"/>
	</g>
	<g>
		<text transform="matrix(0.8226 0 0 1 220.4961 45.5488)" fill="#FFFFFF" font-family="'ArialMT'" font-size="4.759">Ticket Prices by Decade</text>
	</g>
	<rect x="-12.75" y="-18.735" fill="none" width="285.353" height="201"/>
</g>
<g id="Layer_3">
	<g>
		<g>
			<polyline fill="none" stroke="#FFFFFF" stroke-width="8" stroke-miterlimit="10" points="-17.718,796.472 -11.718,796.472 
				-11.718,792.184 -17.718,792.184 			"/>
			
				<line fill="none" stroke="#FFFFFF" stroke-width="8" stroke-miterlimit="10" stroke-dasharray="11.4312,11.4312" x1="-29.149" y1="792.184" x2="-114.883" y2="792.184"/>
			<polyline fill="none" stroke="#FFFFFF" stroke-width="8" stroke-miterlimit="10" points="-120.599,792.184 -126.599,792.184 
				-126.599,796.472 -120.599,796.472 			"/>
			
				<line fill="none" stroke="#FFFFFF" stroke-width="8" stroke-miterlimit="10" stroke-dasharray="11.4312,11.4312" x1="-109.167" y1="796.472" x2="-23.434" y2="796.472"/>
		</g>
	</g>
	<text transform="matrix(0 -1.018 1 0 55.8735 163.6724)" font-family="'CooperBlackStd'" font-size="18.6141">ADMIT ONE</text>
</g>
</svg>
